<svg version="1.1" id="Layer_1" xmlns="http://www.w3.org/2000/svg" xmlns:xlink="http://www.w3.org/1999/xlink" x="0px" y="0px"
	 width="100%" viewBox="0 0 1920 1920" enable-background="new 0 0 1920 1920" xml:space="preserve">
<path fill="#000000" opacity="1.000000" stroke="none" 
	d="
M1272.000000,1921.000000 
	C848.000000,1921.000000 424.500000,1921.000000 1.000000,1921.000000 
	C1.000000,1281.000000 1.000000,641.000000 1.000000,1.000000 
	C641.000000,1.000000 1281.000000,1.000000 1921.000000,1.000000 
	C1921.000000,641.000000 1921.000000,1281.000000 1921.000000,1921.000000 
	C1704.833374,1921.000000 1488.666626,1921.000000 1272.000000,1921.000000 
M1378.712402,815.853149 
	C1404.688965,882.194824 1422.117065,950.569458 1427.471680,1021.784302 
	C1428.401978,1034.156860 1428.786255,1046.570312 1429.401855,1058.558594 
	C1428.227295,1059.154785 1427.945557,1059.356567 1427.631714,1059.448608 
	C1361.459229,1078.829712 1294.014526,1091.261841 1225.207031,1095.892822 
	C1179.061157,1098.998535 1132.995239,1098.197144 1087.191284,1091.003906 
	C1050.412354,1085.228027 1014.532776,1076.004517 981.163513,1059.251221 
	C926.246643,1031.679565 867.709961,1019.038452 806.928894,1015.116638 
	C766.780151,1012.526184 726.694214,1013.845276 686.659912,1017.813538 
	C641.377747,1022.302063 596.663025,1030.016846 552.446228,1040.671753 
	C539.093384,1043.889404 525.823425,1047.450684 511.626617,1051.081909 
	C513.183533,1032.195923 514.163452,1013.738892 516.315247,995.419373 
	C523.234375,936.511841 538.154480,879.554138 559.335999,824.210266 
	C590.714355,742.223572 634.036133,666.788147 685.023438,595.576294 
	C690.673523,587.685059 696.453064,579.886536 702.715637,571.300415 
	C693.232666,571.300415 684.785217,571.475403 676.351318,571.214661 
	C672.955872,571.109741 670.931274,572.265076 668.981812,574.965210 
	C631.062988,627.484863 596.999023,682.326172 568.558899,740.596497 
	C526.877930,825.995850 498.357147,915.212280 489.666351,1010.270874 
	C485.921783,1051.228516 485.720001,1092.124268 491.227081,1132.926880 
	C499.108795,1191.323608 516.816467,1246.619873 545.175781,1298.295532 
	C597.566650,1393.760864 673.277283,1464.605713 772.501953,1509.396606 
	C866.125610,1551.659302 963.977539,1562.361694 1064.685669,1542.617676 
	C1160.298218,1523.872681 1242.683716,1479.371582 1311.911621,1410.840576 
	C1352.238525,1370.919556 1384.369751,1325.094238 1408.532227,1273.699585 
	C1435.981812,1215.313477 1451.224487,1153.863403 1453.781738,1089.464478 
	C1456.735107,1015.088257 1445.678467,942.482666 1424.334106,871.307800 
	C1407.815918,816.226013 1385.463135,763.564941 1358.634277,712.783813 
	C1333.114502,664.480591 1303.873901,618.480652 1271.678223,574.357239 
	C1270.773804,573.118042 1269.283081,571.484680 1268.029785,571.452881 
	C1258.469604,571.209900 1248.900269,571.319641 1238.602783,571.319641 
	C1239.942993,573.243408 1240.776001,574.427551 1241.597412,575.619690 
	C1259.711426,601.910706 1278.529053,627.749512 1295.785889,654.591736 
	C1328.460571,705.415161 1356.245728,758.861511 1378.712402,815.853149 
M934.499939,475.168335 
	C1038.296509,475.168335 1142.093018,475.168457 1245.889526,475.167236 
	C1247.555420,475.167236 1249.223633,475.202332 1250.886963,475.132843 
	C1257.519531,474.855743 1259.945435,471.723297 1256.907593,465.702240 
	C1253.725098,459.394379 1249.786377,453.283630 1245.232910,447.883789 
	C1225.309082,424.256104 1202.085571,403.994934 1178.861938,383.743317 
	C1175.129517,380.488525 1171.306396,378.982422 1166.284302,378.986786 
	C1042.494995,379.094299 918.705566,379.036804 794.916504,379.231812 
	C791.105042,379.237793 786.625488,380.741272 783.598022,383.045380 
	C765.195740,397.050537 746.672302,410.961426 729.101929,425.972015 
	C717.394897,435.973419 707.016663,447.573944 696.453003,458.842560 
	C693.396179,462.103302 690.161133,466.682617 692.461121,471.478424 
	C694.804932,476.365356 700.203247,475.134033 704.581116,475.136536 
	C780.887390,475.180573 857.193604,475.168335 934.499939,475.168335 
z"/>
<path fill="#FFFFFF" opacity="1.000000" stroke="none" 
	d="
M1378.509155,815.523438 
	C1356.245728,758.861511 1328.460571,705.415161 1295.785889,654.591736 
	C1278.529053,627.749512 1259.711426,601.910706 1241.597412,575.619690 
	C1240.776001,574.427551 1239.942993,573.243408 1238.602783,571.319641 
	C1248.900269,571.319641 1258.469604,571.209900 1268.029785,571.452881 
	C1269.283081,571.484680 1270.773804,573.118042 1271.678223,574.357239 
	C1303.873901,618.480652 1333.114502,664.480591 1358.634277,712.783813 
	C1385.463135,763.564941 1407.815918,816.226013 1424.334106,871.307800 
	C1445.678467,942.482666 1456.735107,1015.088257 1453.781738,1089.464478 
	C1451.224487,1153.863403 1435.981812,1215.313477 1408.532227,1273.699585 
	C1384.369751,1325.094238 1352.238525,1370.919556 1311.911621,1410.840576 
	C1242.683716,1479.371582 1160.298218,1523.872681 1064.685669,1542.617676 
	C963.977539,1562.361694 866.125610,1551.659302 772.501953,1509.396606 
	C673.277283,1464.605713 597.566650,1393.760864 545.175781,1298.295532 
	C516.816467,1246.619873 499.108795,1191.323608 491.227081,1132.926880 
	C485.720001,1092.124268 485.921783,1051.228516 489.666351,1010.270874 
	C498.357147,915.212280 526.877930,825.995850 568.558899,740.596497 
	C596.999023,682.326172 631.062988,627.484863 668.981812,574.965210 
	C670.931274,572.265076 672.955872,571.109741 676.351318,571.214661 
	C684.785217,571.475403 693.232666,571.300415 702.715637,571.300415 
	C696.453064,579.886536 690.673523,587.685059 685.023438,595.576294 
	C634.036133,666.788147 590.714355,742.223572 559.335999,824.210266 
	C538.154480,879.554138 523.234375,936.511841 516.315247,995.419373 
	C514.163452,1013.738892 513.183533,1032.195923 511.626617,1051.081909 
	C525.823425,1047.450684 539.093384,1043.889404 552.446228,1040.671753 
	C596.663025,1030.016846 641.377747,1022.302063 686.659912,1017.813538 
	C726.694214,1013.845276 766.780151,1012.526184 806.928894,1015.116638 
	C867.709961,1019.038452 926.246643,1031.679565 981.163513,1059.251221 
	C1014.532776,1076.004517 1050.412354,1085.228027 1087.191284,1091.003906 
	C1132.995239,1098.197144 1179.061157,1098.998535 1225.207031,1095.892822 
	C1294.014526,1091.261841 1361.459229,1078.829712 1427.631714,1059.448608 
	C1427.945557,1059.356567 1428.227295,1059.154785 1429.401855,1058.558594 
	C1428.786255,1046.570312 1428.401978,1034.156860 1427.471680,1021.784302 
	C1422.117065,950.569458 1404.688965,882.194824 1378.509155,815.523438 
z"/>
<path fill="#FFFFFF" opacity="1.000000" stroke="none" 
	d="
M933.999878,475.168335 
	C857.193604,475.168335 780.887390,475.180573 704.581116,475.136536 
	C700.203247,475.134033 694.804932,476.365356 692.461121,471.478424 
	C690.161133,466.682617 693.396179,462.103302 696.453003,458.842560 
	C707.016663,447.573944 717.394897,435.973419 729.101929,425.972015 
	C746.672302,410.961426 765.195740,397.050537 783.598022,383.045380 
	C786.625488,380.741272 791.105042,379.237793 794.916504,379.231812 
	C918.705566,379.036804 1042.494995,379.094299 1166.284302,378.986786 
	C1171.306396,378.982422 1175.129517,380.488525 1178.861938,383.743317 
	C1202.085571,403.994934 1225.309082,424.256104 1245.232910,447.883789 
	C1249.786377,453.283630 1253.725098,459.394379 1256.907593,465.702240 
	C1259.945435,471.723297 1257.519531,474.855743 1250.886963,475.132843 
	C1249.223633,475.202332 1247.555420,475.167236 1245.889526,475.167236 
	C1142.093018,475.168457 1038.296509,475.168335 933.999878,475.168335 
z"/>
</svg>