<svg version="1.1" id="Layer_1" xmlns="http://www.w3.org/2000/svg" xmlns:xlink="http://www.w3.org/1999/xlink" x="0px" y="0px"
	 width="100%" viewBox="0 0 600 600" enable-background="new 0 0 600 600" xml:space="preserve">
<path fill="#C41330" opacity="1.000000" stroke="none" 
	d="
M384.000000,601.000000 
	C256.000000,601.000000 128.500000,601.000000 1.000000,601.000000 
	C1.000000,401.000000 1.000000,201.000000 1.000000,1.000000 
	C201.000000,1.000000 401.000000,1.000000 601.000000,1.000000 
	C601.000000,201.000000 601.000000,401.000000 601.000000,601.000000 
	C528.833313,601.000000 456.666656,601.000000 384.000000,601.000000 
M149.441681,249.121140 
	C144.115692,249.121140 138.789703,249.121140 133.136963,249.121140 
	C126.973076,266.682495 120.834579,284.171478 114.380051,302.560913 
	C113.373764,299.874817 112.638123,298.053986 112.004913,296.198242 
	C107.067833,281.728973 102.214119,267.230530 97.130341,252.813141 
	C96.611176,251.340790 94.789146,249.339722 93.502518,249.287460 
	C85.518044,248.963165 77.511841,249.043182 69.518661,249.233398 
	C68.545479,249.256561 67.607071,250.741043 66.652550,251.548264 
	C66.949684,251.933563 67.246826,252.318848 67.543968,252.704147 
	C69.827240,252.839935 72.110504,252.975739 74.688362,253.129044 
	C74.688362,275.500153 74.747116,297.618408 74.622322,319.735657 
	C74.604477,322.898590 73.037605,325.373444 69.465950,326.231018 
	C68.367416,326.494781 67.566277,327.997131 65.821762,329.737732 
	C73.989456,329.737732 80.412361,329.737732 87.936852,329.737732 
	C86.742020,328.163361 86.095596,326.550812 85.419930,326.538452 
	C78.311493,326.408539 78.225143,321.495636 78.227440,316.420959 
	C78.235718,298.092926 78.223816,279.764893 78.243507,261.436859 
	C78.245132,259.921936 78.427032,258.407227 78.525177,256.892395 
	C80.318756,258.879761 81.192444,260.951660 81.936562,263.069122 
	C89.373199,284.230835 96.762047,305.409424 104.273186,326.544586 
	C104.740974,327.860840 106.120918,328.852936 107.076492,329.995880 
	C108.038506,328.881348 109.430450,327.921509 109.895721,326.628265 
	C114.339264,314.277374 118.625763,301.869965 122.957756,289.478943 
	C126.710579,278.744598 130.463867,268.010406 134.216965,257.276123 
	C134.497208,257.338623 134.777451,257.401123 135.057693,257.463623 
	C135.057693,280.279724 135.057693,303.095795 135.057693,325.876099 
	C128.274399,326.887024 128.274399,326.887024 128.302338,329.635437 
	C138.683319,329.635437 149.059052,329.635437 159.684937,329.635437 
	C159.006699,324.075073 154.332458,327.770416 152.279114,325.756958 
	C152.279114,301.599884 152.279114,277.336395 152.279114,252.877075 
	C153.872604,252.877075 155.247711,253.093887 156.510803,252.810837 
	C157.588409,252.569351 158.537292,251.753372 159.543106,251.191513 
	C158.498688,250.501877 157.523209,249.403961 156.394531,249.213364 
	C154.450455,248.885071 152.411011,249.121628 149.441681,249.121140 
M518.408264,434.786835 
	C516.921631,438.218506 515.435059,441.650177 513.675781,445.711243 
	C512.503967,443.909546 511.940186,442.691223 511.066559,441.765167 
	C508.396118,438.934448 505.203339,438.134064 501.566132,439.789246 
	C498.085876,441.372986 496.676239,444.223877 497.052368,447.883667 
	C497.457428,451.825012 499.801849,454.248535 503.675446,454.940613 
	C507.923889,455.699615 511.761292,454.649994 514.274475,450.996765 
	C516.138977,448.286469 517.689575,445.301514 518.990051,442.271515 
	C526.656372,424.410065 534.178101,406.486542 541.823608,388.616058 
	C543.431274,384.858398 544.645874,380.668427 549.716003,379.803802 
	C550.266357,379.709991 550.490784,377.704681 551.022339,376.121582 
	C545.111572,376.121582 540.121338,375.984772 535.149780,376.228577 
	C534.060242,376.282013 533.037109,377.690796 531.003723,379.204956 
	C539.447632,380.653778 540.336853,381.204987 538.976196,385.085968 
	C536.496643,392.158264 533.426453,399.023468 530.093140,407.229614 
	C525.731323,397.376160 521.983826,388.910522 518.026062,379.969849 
	C520.480347,379.969849 522.124084,379.969849 523.767761,379.969849 
	C524.068237,379.553406 524.368713,379.136932 524.669189,378.720490 
	C523.560242,377.853668 522.479614,376.283417 521.337524,376.237335 
	C515.185425,375.989014 509.018097,376.119049 502.856018,376.118805 
	C496.933899,376.118591 491.011780,376.118774 484.493591,376.118774 
	C484.493591,367.589752 484.493591,359.764984 484.493591,351.940247 
	C483.995850,351.890045 483.498108,351.839813 483.000366,351.789612 
	C482.713318,353.043457 482.379913,354.288788 482.146515,355.552551 
	C480.271210,365.705963 475.962494,373.747467 464.828644,376.222839 
	C463.855804,376.439148 463.210571,378.128937 461.985962,379.672882 
	C465.001221,379.986115 466.767944,380.169617 468.766724,380.377228 
	C468.766724,382.256531 468.765106,383.901855 468.766968,385.547211 
	C468.778320,395.539612 468.665161,405.534271 468.847198,415.523560 
	C468.964752,421.974091 472.337982,426.293396 477.857941,427.837616 
	C485.386108,429.943665 492.898346,426.545288 496.096863,418.751984 
	C494.508942,419.001312 493.352570,419.949585 492.043030,420.579468 
	C490.502197,421.320587 488.695801,422.437653 487.258392,422.144958 
	C486.273132,421.944305 485.092133,419.624237 485.073700,418.237305 
	C484.906281,405.636566 484.975494,393.032654 484.975494,380.014008 
	C489.155884,380.014008 492.966461,380.238556 496.736237,379.943146 
	C499.765320,379.705780 501.032349,380.982178 502.144653,383.617157 
	C507.505859,396.317352 512.928589,408.996735 518.655151,421.534790 
	C520.652344,425.907623 521.508179,429.887970 518.408264,434.786835 
M96.086502,346.119568 
	C86.471878,346.119568 76.857262,346.119568 66.813065,346.119568 
	C67.650894,352.227783 72.549095,347.988037 74.792595,350.447113 
	C74.837914,351.146179 74.975403,352.289246 74.976517,353.432434 
	C74.991058,368.429504 74.974548,383.426575 74.989494,398.423645 
	C75.007416,416.409363 84.215958,427.111115 101.962646,428.660400 
	C119.982895,430.233582 137.463165,423.892731 136.330933,398.194977 
	C135.766708,385.389008 136.126633,372.536316 136.289139,359.707520 
	C136.348175,355.047913 135.537750,349.409332 143.089737,349.464386 
	C143.564590,349.467896 144.561249,348.112640 144.429245,347.868439 
	C144.045502,347.158600 143.220856,346.218597 142.551758,346.204681 
	C136.483490,346.078461 130.411499,346.130707 124.340599,346.130707 
	C124.168571,346.689270 123.996536,347.247864 123.824509,347.806427 
	C124.920319,348.444763 125.972900,349.527008 127.119987,349.638733 
	C130.645782,349.982056 132.120346,351.830170 132.114990,355.210602 
	C132.088608,371.873566 132.394928,388.544922 131.956741,405.196777 
	C131.630432,417.597382 122.275520,425.219940 109.928528,424.122009 
	C99.941460,423.233887 93.712364,417.231537 93.119499,405.252930 
	C92.223206,387.143524 92.548035,368.973633 92.380386,350.829163 
	C92.378052,350.576111 92.720100,350.319855 93.065010,349.835266 
	C94.369858,349.765869 95.887360,349.871704 97.303947,349.542877 
	C98.216942,349.330933 98.981789,348.480865 99.813019,347.916809 
	C98.871918,347.318359 97.930817,346.719910 96.086502,346.119568 
M131.624298,202.035706 
	C130.668411,203.198639 129.154129,204.231995 128.849228,205.545975 
	C127.150604,212.866409 124.229736,219.428467 118.291046,224.304489 
	C107.072807,233.515411 93.281540,229.776016 89.738503,215.880432 
	C85.319389,198.548889 85.140259,180.869614 90.060791,163.580765 
	C94.207863,149.009506 108.585640,145.487640 118.868286,156.703369 
	C123.290108,161.526443 125.525421,168.344543 128.818787,174.219986 
	C129.460617,175.364990 130.401291,176.342484 131.204117,177.397247 
	C131.673538,177.124878 132.142960,176.852509 132.612381,176.580139 
	C132.612381,168.271759 132.646347,159.963043 132.559555,151.655563 
	C132.550919,150.830643 131.805634,150.013412 131.402267,149.192612 
	C130.618301,149.618332 129.875397,150.167206 129.042130,150.445068 
	C127.089912,151.096054 125.063011,152.156296 123.124985,152.043488 
	C121.073624,151.924057 119.037704,150.751343 117.085617,149.843857 
	C105.467720,144.442917 94.464256,146.217148 84.733765,153.792969 
	C70.860596,164.594116 65.597458,179.543152 67.379120,196.671722 
	C69.215820,214.329407 79.929970,227.431458 94.668961,231.269409 
	C104.434174,233.812210 113.738274,232.435532 122.568512,227.467422 
	C125.079102,226.054886 128.154922,223.863144 129.317947,229.127136 
	C129.450531,229.727264 130.782211,230.062469 131.557877,230.520523 
	C131.997269,229.742584 132.820862,228.962799 132.817139,228.186996 
	C132.775742,219.551651 132.606400,210.916916 131.624298,202.035706 
M406.934570,222.382004 
	C403.583893,221.583603 400.260406,220.274765 396.876770,220.094254 
	C390.072021,219.731277 383.232086,220.075272 376.412506,219.899780 
	C375.135071,219.866898 372.984924,218.943909 372.827881,218.126282 
	C372.576385,216.816559 373.267303,214.877563 374.244598,213.866196 
	C376.922394,211.095093 380.241699,211.218521 383.932007,211.960175 
	C392.126068,213.606949 399.645966,211.785355 405.110565,205.168335 
	C409.954987,199.302246 408.995270,192.894638 405.601013,186.496460 
	C405.156616,185.658752 406.344330,183.955185 406.776093,182.652649 
	C407.239594,182.835617 407.703125,183.018585 408.166626,183.201569 
	C408.166626,183.829147 407.898987,184.700989 408.211487,185.043381 
	C409.834961,186.822174 411.376160,189.263718 413.414185,189.851746 
	C414.599823,190.193848 418.084076,187.413467 418.018494,186.170807 
	C417.905701,184.033066 416.191559,180.686035 414.492523,180.214676 
	C411.602936,179.413071 408.205933,180.481949 405.017731,180.700012 
	C403.074188,180.832947 401.105011,181.042419 399.177551,180.873230 
	C393.633057,180.386581 387.962860,178.655167 382.599213,179.362640 
	C372.545746,180.688690 366.008667,189.594986 368.286133,198.509964 
	C369.342957,202.646774 372.710846,206.193192 374.981750,209.926239 
	C370.801941,211.021805 367.255524,213.943390 366.273743,218.984665 
	C365.074158,225.144257 366.089539,230.796631 372.371094,234.371521 
	C367.119019,237.220169 363.252319,240.478378 363.489929,246.199875 
	C363.738831,252.193817 367.712524,255.823227 372.863098,258.058685 
	C382.588257,262.279572 392.329956,262.292877 401.562836,256.777039 
	C413.671478,249.543182 416.663483,231.830276 406.934570,222.382004 
M287.037384,178.311920 
	C281.958984,180.738815 276.880615,183.165710 272.007263,185.494614 
	C271.913391,184.335693 271.746735,182.277634 271.582855,180.254013 
	C263.431183,180.254013 255.674103,180.254013 247.570969,180.254013 
	C248.528656,185.671509 253.555496,181.532639 255.464996,184.201248 
	C255.464996,198.297318 255.464996,212.511047 255.464996,226.951843 
	C254.033646,227.015488 252.841019,226.878906 251.759903,227.164444 
	C250.400955,227.523361 249.133270,228.227814 247.826202,228.783157 
	C249.096832,229.396622 250.355408,230.509659 251.640091,230.540665 
	C258.796204,230.713303 265.962036,230.744019 273.116516,230.540405 
	C274.936310,230.488617 276.726807,229.407639 278.530762,228.799576 
	C276.702393,228.211258 274.871918,227.629257 273.047760,227.028122 
	C272.761536,226.933777 272.503845,226.752625 271.902802,226.439758 
	C271.902802,216.962936 271.464600,207.303497 272.065613,197.709167 
	C272.431580,191.867096 276.030762,187.127243 281.219452,184.185440 
	C285.287476,181.879044 289.705536,183.771606 289.821259,188.155594 
	C290.162170,201.067200 289.942902,213.993561 289.942902,227.122314 
	C288.341614,227.122314 287.112366,226.884033 286.045837,227.198242 
	C285.203857,227.446259 284.562073,228.373795 283.831360,228.999527 
	C284.506195,229.536575 285.175598,230.533066 285.856659,230.541061 
	C294.680786,230.644852 303.507019,230.644272 312.330933,230.529587 
	C312.952362,230.521515 313.559418,229.409729 314.173187,228.811157 
	C313.541718,228.249588 312.957001,227.283081 312.269867,227.203751 
	C310.347015,226.981750 308.381866,227.126465 306.547058,227.126465 
	C306.377502,226.143524 306.273102,225.818710 306.272461,225.493698 
	C306.253479,215.669312 306.279236,205.844711 306.225983,196.020538 
	C306.155487,183.019897 300.873077,177.914062 287.037384,178.311920 
M350.399048,330.016632 
	C353.198975,330.016632 355.998932,330.016632 359.014099,330.016632 
	C359.802734,324.103607 354.577423,327.741425 352.738373,325.179382 
	C352.738373,316.035065 351.876495,306.131317 353.120880,296.499695 
	C353.697998,292.032654 357.729370,287.378540 361.363647,284.108185 
	C365.445770,280.434875 370.671600,283.091187 370.816162,288.671936 
	C371.138733,301.124786 370.916962,313.591766 370.916962,325.383453 
	C368.229462,326.444855 366.138611,327.270599 364.047791,328.096375 
	C364.240234,328.646820 364.432678,329.197235 364.625092,329.747681 
	C374.697144,329.747681 384.769196,329.747681 395.158295,329.747681 
	C394.449646,323.932617 389.711761,327.729126 387.016663,325.499237 
	C387.016663,324.466003 387.016876,322.829742 387.016632,321.193512 
	C387.015320,311.863068 387.154022,302.529938 386.976013,293.202881 
	C386.767181,282.260620 379.785919,275.894226 369.054779,277.890594 
	C363.353760,278.951141 358.067139,282.239594 352.766998,284.450012 
	C352.673340,283.534851 352.460236,281.453064 352.221161,279.117340 
	C345.037170,279.117340 338.223297,279.046692 331.414185,279.194916 
	C330.415100,279.216705 329.438599,280.278625 328.451630,280.859253 
	C329.511810,281.533966 330.494202,282.486542 331.652466,282.810944 
	C333.012451,283.191895 334.525269,283.027130 335.997742,283.100342 
	C335.997742,297.666382 335.997742,311.883118 335.997742,325.683105 
	C333.491150,327.439423 329.022766,324.498047 328.026947,330.016632 
	C335.805481,330.016632 342.617096,330.016632 350.399048,330.016632 
M185.437302,374.777191 
	C177.771835,374.438660 171.797104,377.861755 166.487152,384.033325 
	C166.267502,381.057404 166.105408,378.860962 165.923096,376.390747 
	C158.839691,376.390747 152.195190,376.320068 145.555359,376.464539 
	C144.521576,376.487091 143.509155,377.491547 142.486862,378.041962 
	C143.430038,378.652039 144.305405,379.571106 145.332993,379.796631 
	C146.720337,380.101105 148.224701,379.872253 149.793793,379.872253 
	C149.793793,394.667511 149.793793,409.047394 149.793793,423.130341 
	C146.992249,423.789124 144.574158,424.357727 142.156067,424.926300 
	C142.299484,425.507416 142.442902,426.088501 142.586304,426.669617 
	C152.637848,426.669617 162.689392,426.669617 172.740921,426.669617 
	C172.916687,426.168030 173.092453,425.666473 173.268219,425.164886 
	C171.026978,424.430908 168.785736,423.696930 166.245667,422.865082 
	C166.245667,413.670197 165.842743,404.342133 166.392242,395.070526 
	C166.738480,389.228424 170.154358,384.400208 175.075302,381.120117 
	C179.619690,378.090942 184.389923,379.936432 184.577377,385.230804 
	C185.028442,397.970215 184.723450,410.736389 184.723450,423.082947 
	C182.211899,423.835388 180.203476,424.437073 178.195038,425.038788 
	C178.353302,425.574829 178.511566,426.110840 178.669830,426.646881 
	C188.690063,426.646881 198.710297,426.646881 208.730515,426.646881 
	C208.871780,426.050049 209.013031,425.453186 209.154282,424.856354 
	C206.568695,424.294556 203.983109,423.732727 201.003769,423.085358 
	C201.003769,412.570007 201.129211,401.943146 200.968460,391.320587 
	C200.807907,380.711426 196.304260,375.777832 185.437302,374.777191 
M143.605270,208.179993 
	C136.308456,217.473297 139.650635,228.027191 150.932724,231.066055 
	C159.186234,233.289169 166.685242,231.816788 173.065216,225.775970 
	C174.101761,226.964417 174.861984,228.055389 175.830185,228.911026 
	C182.689941,234.973114 194.966904,231.818390 196.571899,223.555206 
	C196.748962,222.643600 196.096313,221.570847 195.828461,220.572815 
	C195.004608,221.155258 193.972351,221.583435 193.402161,222.353653 
	C192.356827,223.765747 191.584122,225.379654 190.697723,226.909409 
	C190.170319,226.781067 189.642929,226.652710 189.115524,226.524353 
	C188.819992,224.505600 188.292831,222.489532 188.269241,220.467606 
	C188.170181,211.977829 188.216141,203.486298 188.220383,194.995407 
	C188.222763,190.230148 186.657196,186.202103 182.781067,183.233093 
	C174.944153,177.230209 156.242844,176.855927 148.736893,183.118698 
	C146.474503,185.006348 144.803680,188.456146 144.335526,191.422913 
	C143.763641,195.046967 146.184448,197.691284 150.141205,198.144943 
	C153.907425,198.576752 157.261154,197.905014 158.498062,193.686707 
	C159.576553,190.008759 158.558960,187.139450 154.757675,185.606384 
	C154.234268,185.395294 153.838943,184.866623 152.529831,183.767685 
	C156.481628,183.078400 159.521729,182.218674 162.595016,182.076645 
	C170.397781,181.716019 172.708755,184.095322 172.767563,191.981537 
	C172.789658,194.944839 172.771133,197.908432 172.771133,201.263000 
	C169.050827,201.571838 165.654251,201.418365 162.493698,202.208710 
	C156.311630,203.754669 150.261292,205.827454 143.605270,208.179993 
M328.872620,306.262817 
	C328.872375,305.096710 328.927979,303.927460 328.863220,302.764954 
	C328.203125,290.913483 320.304871,281.643158 308.410950,278.731659 
	C296.195709,275.741516 283.553894,280.765839 277.681091,290.944763 
	C271.771942,301.186676 273.110626,314.674194 281.158905,322.917786 
	C289.283112,331.239166 299.326569,333.083893 310.146210,329.959290 
	C321.402771,326.708588 327.354675,318.630432 328.872620,306.262817 
M250.772171,296.499878 
	C250.772171,306.289581 250.772171,316.079254 250.772171,324.975861 
	C248.443649,328.066223 243.102432,323.695801 242.972260,329.803101 
	C253.683990,329.803101 264.120941,329.803101 274.926361,329.803101 
	C274.503845,323.762360 269.085907,328.046051 266.709167,325.057892 
	C266.709167,300.306274 266.709167,274.919983 266.709167,249.332397 
	C258.628845,249.332397 251.027405,249.332397 243.006668,249.332397 
	C243.271713,255.273163 248.592178,250.820419 250.772156,254.193451 
	C250.772156,267.264069 250.772156,281.381958 250.772171,296.499878 
M216.995270,311.496735 
	C216.995270,316.395660 216.995270,321.294586 216.995270,326.129242 
	C209.614166,326.622559 209.614166,326.622559 209.723083,329.845306 
	C220.005081,329.845306 230.290970,329.845306 241.030670,329.845306 
	C240.610138,323.762726 235.379044,328.019989 232.846588,325.165558 
	C232.846588,300.452118 232.846588,274.920898 232.846588,249.371918 
	C224.679489,249.371918 217.073715,249.371918 209.028366,249.371918 
	C209.769150,255.073044 214.728943,251.006256 216.995270,253.633850 
	C216.995270,272.251678 216.995270,291.374481 216.995270,311.496735 
M334.596710,383.923340 
	C325.875366,374.230408 314.603271,372.289764 304.170044,378.684906 
	C293.472870,385.241943 288.695465,399.687103 293.143127,412.026489 
	C297.374359,423.765411 308.983826,430.092590 322.469513,428.009430 
	C332.187408,426.508270 339.871094,418.023041 339.694458,407.999725 
	C338.393524,408.822418 337.416077,409.906982 336.686462,411.138397 
	C334.923584,414.113647 333.717682,417.544800 331.485321,420.088348 
	C327.549988,424.572357 322.275238,425.773621 316.491943,424.105774 
	C310.814575,422.468506 309.612549,417.712982 309.218445,412.791504 
	C308.865234,408.380829 309.144073,403.919525 309.144073,399.023621 
	C319.794342,399.023621 330.035675,399.023621 342.021027,399.023621 
	C339.370728,393.476044 337.219482,388.973053 334.596710,383.923340 
M209.244202,312.391174 
	C207.527252,310.073029 206.697632,310.642761 205.552872,313.077759 
	C203.810760,316.783447 202.097473,320.761200 199.365692,323.682434 
	C195.286987,328.044006 189.653793,328.775330 184.137329,326.604401 
	C179.064590,324.608063 178.091583,319.859222 177.919327,315.024963 
	C177.772079,310.892761 177.888870,306.751160 177.888870,302.076050 
	C188.564362,302.076050 198.782349,302.076050 208.994247,302.076050 
	C208.715149,290.869019 200.700836,280.922882 190.344681,278.404236 
	C180.451004,275.998077 169.248688,281.181244 163.888916,291.096130 
	C158.459488,301.139893 158.549622,311.321686 165.083435,320.838257 
	C171.334900,329.943604 180.640305,332.487488 191.051163,330.850555 
	C201.073944,329.274658 206.603851,322.604919 209.244202,312.391174 
M496.323608,203.015930 
	C497.790710,203.015930 499.257812,203.015930 500.706482,203.015930 
	C501.145203,190.928238 490.819031,179.544800 479.114624,178.761292 
	C465.118683,177.824417 453.341156,188.440781 452.105835,203.107269 
	C450.849976,218.017578 460.352875,230.264404 474.408539,231.849823 
	C488.364075,233.423935 498.970886,225.604065 500.456940,211.787186 
	C499.084106,212.394821 497.879089,213.261856 497.178375,214.431107 
	C495.401001,217.397064 494.286743,220.863342 492.113373,223.466797 
	C488.075378,228.303940 482.409668,229.261276 476.630157,227.508636 
	C471.144684,225.845169 469.935028,220.998993 469.768066,215.925568 
	C469.632294,211.799438 469.740448,207.665283 469.740448,203.015945 
	C478.451813,203.015945 486.904877,203.015945 496.323608,203.015930 
M341.300873,231.946716 
	C353.916565,230.769119 362.535400,222.720566 362.101349,211.638641 
	C360.801605,212.480560 359.812866,213.578964 359.043671,214.814102 
	C357.044647,218.024109 355.709229,221.876038 353.091339,224.427780 
	C346.105530,231.237091 334.291870,228.930847 332.497345,220.416916 
	C331.332397,214.890121 331.733154,209.033325 331.416168,203.015945 
	C337.338074,203.015945 342.316589,203.015961 347.295105,203.015961 
	C352.430725,203.015961 357.566345,203.015945 362.676697,203.015945 
	C363.388977,187.292969 347.039398,174.977539 332.276062,179.682327 
	C320.059723,183.575409 312.349365,196.324692 314.191681,209.585251 
	C316.081635,223.188751 325.855804,231.549438 341.300873,231.946716 
M197.462524,182.277771 
	C199.989700,182.997925 202.516891,183.718079 205.088852,184.450989 
	C205.088852,198.519089 205.088852,212.593048 205.088852,227.110001 
	C203.202118,227.110001 201.546951,226.917740 199.969147,227.184021 
	C199.060287,227.337402 198.276581,228.232361 197.436539,228.793518 
	C198.304916,229.492722 199.164597,230.787079 200.043015,230.799942 
	C209.860626,230.943680 219.682327,230.957840 229.498917,230.782501 
	C230.469040,230.765167 231.412613,229.262527 232.368500,228.449280 
	C232.070343,227.929321 231.772202,227.409363 231.474045,226.889404 
	C228.254471,226.889404 225.034882,226.889404 221.164246,226.889404 
	C223.607605,212.231918 217.186417,196.823807 228.410721,184.264999 
	C228.937271,185.127899 229.030411,185.939346 228.921280,186.722626 
	C228.431122,190.240265 229.451340,193.682999 232.800171,194.452881 
	C235.850204,195.154068 240.275131,195.039581 242.371002,193.257843 
	C244.421707,191.514496 245.287384,187.084686 244.900909,184.060562 
	C244.272446,179.143097 238.657486,176.482086 233.002884,178.508469 
	C228.890701,179.982132 225.313171,182.947800 221.505386,185.243347 
	C221.329559,183.909393 221.096786,182.143433 220.829178,180.113144 
	C213.708038,180.113144 206.738052,180.070694 199.770172,180.172607 
	C198.992401,180.183975 198.226654,181.015442 197.462524,182.277771 
M389.605621,381.847260 
	C386.428925,371.323639 378.023010,371.381470 365.646484,382.203339 
	C365.360657,380.138397 365.096466,378.229828 364.803009,376.109772 
	C357.834045,376.109772 351.019562,376.036011 344.210571,376.195587 
	C343.273071,376.217529 342.362762,377.397461 341.439850,378.041321 
	C342.390747,378.657654 343.271088,379.577454 344.309143,379.818726 
	C345.839844,380.174469 347.482819,380.047028 349.110413,380.126984 
	C349.110413,394.650177 349.110413,408.726196 349.110413,422.115601 
	C347.007477,425.115723 341.711884,420.692017 341.335632,426.756439 
	C353.039276,426.756439 364.440430,426.756439 376.380951,426.756439 
	C374.434875,420.602448 368.994781,425.162109 365.480286,422.095276 
	C367.444000,408.606445 361.300354,393.214417 372.180328,379.884094 
	C373.103088,383.446320 372.979431,387.182251 374.763428,388.756989 
	C376.850586,390.599335 380.714661,391.477570 383.602020,391.118530 
	C387.936279,390.579559 389.658447,386.923798 389.605621,381.847260 
M406.889099,375.074127 
	C406.078339,375.249786 405.249695,375.367218 404.459595,375.610077 
	C396.230377,378.139435 391.623230,384.873291 391.986969,393.805328 
	C392.316925,401.907990 396.530884,406.569458 405.611603,408.474457 
	C409.346069,409.257965 413.335175,409.094513 416.912109,410.266296 
	C419.210144,411.019165 422.560394,413.386078 422.598022,415.092163 
	C422.655792,417.713257 420.936462,421.357208 418.782532,422.837097 
	C414.399872,425.848358 408.896454,425.808136 404.785370,422.351410 
	C401.369690,419.479431 399.107910,415.244110 396.286224,411.650970 
	C395.458038,410.596283 394.463318,409.672363 392.666809,407.747864 
	C392.666809,415.698120 392.666809,421.796234 392.666809,428.063873 
	C395.682922,427.315399 398.392029,426.079224 401.077118,426.129303 
	C403.980988,426.183472 406.834015,427.603943 409.764343,428.108002 
	C411.535736,428.412720 413.431702,428.270508 415.237640,428.050079 
	C423.644043,427.023926 430.441437,419.047668 430.830719,409.875549 
	C431.211243,400.910736 426.844727,395.787018 417.117554,393.941254 
	C413.031982,393.166016 408.889740,392.683716 404.813202,391.868500 
	C401.739227,391.253754 399.000977,390.023407 398.909912,386.202026 
	C398.814667,382.207825 401.170990,380.083710 404.682373,379.094757 
	C412.589966,376.867584 418.311432,379.659882 422.323853,387.432556 
	C423.168121,389.068085 424.337524,390.535797 425.357117,392.080872 
	C425.759491,391.842102 426.161865,391.603363 426.564240,391.364624 
	C426.564240,385.940063 426.564240,380.515533 426.564240,373.958435 
	C422.107544,378.826599 417.926819,376.944611 413.658051,375.658966 
	C411.791443,375.096771 409.723022,375.204712 406.889099,375.074127 
M266.673370,376.485809 
	C258.515625,376.445923 250.356659,376.326050 242.201477,376.452026 
	C240.973129,376.470978 239.762512,377.637604 238.543686,378.273376 
	C238.674515,378.824036 238.805359,379.374695 238.936188,379.925385 
	C243.472977,378.815735 244.815933,381.435272 246.227814,384.820892 
	C251.788193,398.154236 257.608826,411.380371 263.478455,424.581573 
	C264.113586,426.010040 265.693695,427.018341 266.835480,428.221558 
	C267.920319,426.980835 269.399963,425.912354 270.028046,424.472412 
	C275.471710,411.992371 280.615631,399.379395 286.215179,386.971313 
	C287.418610,384.304596 290.091736,382.295837 292.113861,380.006958 
	C292.761200,379.274170 293.492310,378.615326 294.185059,377.922607 
	C293.322083,377.404449 292.474823,376.472229 291.593445,376.438751 
	C287.436371,376.280853 283.264801,376.257935 279.110565,376.449890 
	C278.106018,376.496338 277.147644,377.542664 276.168060,378.129150 
	C277.131531,378.715790 278.107788,379.819580 279.056213,379.796204 
	C282.486298,379.711639 283.956451,381.337830 282.828857,384.375916 
	C280.092712,391.747986 276.996979,398.986572 273.651215,407.254883 
	C269.364746,397.550507 265.586884,388.997589 261.978424,380.828247 
	C263.796143,378.681641 268.536407,382.173370 266.673370,376.485809 
M427.771576,195.498077 
	C427.771576,205.906891 427.771576,216.315689 427.771576,226.873703 
	C424.932770,227.051804 422.646454,227.195236 419.097321,227.417892 
	C420.469727,228.932724 421.209442,230.471634 421.975616,230.484940 
	C431.288666,230.646683 440.606018,230.618546 449.920563,230.503525 
	C450.559387,230.495621 451.184814,229.401794 451.816498,228.813019 
	C451.168976,228.254868 450.572479,227.308228 449.863861,227.215134 
	C448.095886,226.982880 446.276947,227.138580 444.025024,227.138580 
	C444.025024,211.237411 444.025024,195.676682 444.025024,179.950912 
	C436.452362,179.950912 429.336060,179.950912 422.180206,179.950912 
	C420.469452,185.875351 426.551636,182.149338 427.771576,185.225586 
	C427.771576,187.865479 427.771576,191.180801 427.771576,195.498077 
M456.425659,422.860687 
	C456.425659,407.429596 456.425659,391.998474 456.425659,376.132996 
	C448.671021,376.132996 441.707642,376.031555 434.753784,376.242859 
	C433.716675,376.274384 432.724213,377.776031 431.711060,378.597534 
	C431.990906,379.084961 432.270752,379.572388 432.550598,380.059814 
	C434.960938,380.059814 437.371246,380.059814 439.676758,380.059814 
	C439.676758,394.909821 439.676758,409.270569 439.676758,423.091156 
	C436.690430,423.800354 434.272919,424.374451 431.855377,424.948578 
	C431.997284,425.525391 432.139160,426.102203 432.281067,426.679016 
	C442.814148,426.679016 453.347229,426.679016 464.343323,426.679016 
	C463.064301,421.896790 459.187347,424.788239 456.425659,422.860687 
M230.262329,376.126617 
	C224.773361,376.127258 219.278000,375.989105 213.800568,376.240631 
	C212.644501,376.293701 211.554016,377.774597 210.433304,378.597626 
	C210.707932,379.003235 210.982559,379.408875 211.257202,379.814514 
	C213.661606,379.970703 216.066010,380.126892 218.460388,380.282471 
	C218.460388,394.891846 218.460388,409.108429 218.460388,423.276947 
	C211.423996,424.274719 211.423996,424.274719 211.367920,426.733643 
	C221.783691,426.733643 232.196198,426.733643 243.069870,426.733643 
	C241.882248,421.478210 237.123322,425.357819 234.873062,422.728394 
	C234.873062,408.785858 234.818604,394.495575 234.920166,380.206421 
	C234.939880,377.432739 234.542068,375.585693 230.262329,376.126617 
M447.642548,368.851807 
	C454.026154,367.694672 456.673309,364.679596 455.977295,359.358612 
	C455.410034,355.022003 451.611603,352.250793 446.946350,352.827240 
	C442.904755,353.326630 440.619598,355.849640 440.158936,359.685028 
	C439.566437,364.617981 442.281158,367.455933 447.642548,368.851807 
M429.140167,159.956131 
	C427.138611,163.785675 427.096008,167.929062 430.712036,170.203964 
	C433.080811,171.694229 437.366119,172.147705 439.769104,170.972260 
	C441.896881,169.931427 443.780121,165.916763 443.601898,163.366547 
	C443.440063,161.050476 440.663971,157.580383 438.480652,157.084747 
	C435.824768,156.481827 432.582886,158.460052 429.140167,159.956131 
M219.017349,362.962433 
	C220.198334,366.804932 223.109268,369.050446 226.793808,368.644135 
	C229.245285,368.373810 232.073563,366.554474 233.658112,364.570007 
	C235.945786,361.704987 235.571838,357.660828 232.683411,355.595306 
	C230.330414,353.912659 226.524231,352.919312 223.748184,353.491638 
	C219.764297,354.312927 218.352127,358.031403 219.017349,362.962433 
z"/>
<path fill="#FDF9F9" opacity="1.000000" stroke="none" 
	d="
M149.926636,249.121140 
	C152.411011,249.121628 154.450455,248.885071 156.394531,249.213364 
	C157.523209,249.403961 158.498688,250.501877 159.543106,251.191513 
	C158.537292,251.753372 157.588409,252.569351 156.510803,252.810837 
	C155.247711,253.093887 153.872604,252.877075 152.279114,252.877075 
	C152.279114,277.336395 152.279114,301.599884 152.279114,325.756958 
	C154.332458,327.770416 159.006699,324.075073 159.684937,329.635437 
	C149.059052,329.635437 138.683319,329.635437 128.302338,329.635437 
	C128.274399,326.887024 128.274399,326.887024 135.057693,325.876099 
	C135.057693,303.095795 135.057693,280.279724 135.057693,257.463623 
	C134.777451,257.401123 134.497208,257.338623 134.216965,257.276123 
	C130.463867,268.010406 126.710579,278.744598 122.957756,289.478943 
	C118.625763,301.869965 114.339264,314.277374 109.895721,326.628265 
	C109.430450,327.921509 108.038506,328.881348 107.076492,329.995880 
	C106.120918,328.852936 104.740974,327.860840 104.273186,326.544586 
	C96.762047,305.409424 89.373199,284.230835 81.936562,263.069122 
	C81.192444,260.951660 80.318756,258.879761 78.525177,256.892395 
	C78.427032,258.407227 78.245132,259.921936 78.243507,261.436859 
	C78.223816,279.764893 78.235718,298.092926 78.227440,316.420959 
	C78.225143,321.495636 78.311493,326.408539 85.419930,326.538452 
	C86.095596,326.550812 86.742020,328.163361 87.936852,329.737732 
	C80.412361,329.737732 73.989456,329.737732 65.821762,329.737732 
	C67.566277,327.997131 68.367416,326.494781 69.465950,326.231018 
	C73.037605,325.373444 74.604477,322.898590 74.622322,319.735657 
	C74.747116,297.618408 74.688362,275.500153 74.688362,253.129044 
	C72.110504,252.975739 69.827240,252.839935 67.543968,252.704147 
	C67.246826,252.318848 66.949684,251.933563 66.652550,251.548264 
	C67.607071,250.741043 68.545479,249.256561 69.518661,249.233398 
	C77.511841,249.043182 85.518044,248.963165 93.502518,249.287460 
	C94.789146,249.339722 96.611176,251.340790 97.130341,252.813141 
	C102.214119,267.230530 107.067833,281.728973 112.004913,296.198242 
	C112.638123,298.053986 113.373764,299.874817 114.380051,302.560913 
	C120.834579,284.171478 126.973076,266.682495 133.136963,249.121140 
	C138.789703,249.121140 144.115692,249.121140 149.926636,249.121140 
z"/>
<path fill="#FDF8F9" opacity="1.000000" stroke="none" 
	d="
M518.593994,434.450836 
	C521.508179,429.887970 520.652344,425.907623 518.655151,421.534790 
	C512.928589,408.996735 507.505859,396.317352 502.144653,383.617157 
	C501.032349,380.982178 499.765320,379.705780 496.736237,379.943146 
	C492.966461,380.238556 489.155884,380.014008 484.975494,380.014008 
	C484.975494,393.032654 484.906281,405.636566 485.073700,418.237305 
	C485.092133,419.624237 486.273132,421.944305 487.258392,422.144958 
	C488.695801,422.437653 490.502197,421.320587 492.043030,420.579468 
	C493.352570,419.949585 494.508942,419.001312 496.096863,418.751984 
	C492.898346,426.545288 485.386108,429.943665 477.857941,427.837616 
	C472.337982,426.293396 468.964752,421.974091 468.847198,415.523560 
	C468.665161,405.534271 468.778320,395.539612 468.766968,385.547211 
	C468.765106,383.901855 468.766724,382.256531 468.766724,380.377228 
	C466.767944,380.169617 465.001221,379.986115 461.985962,379.672882 
	C463.210571,378.128937 463.855804,376.439148 464.828644,376.222839 
	C475.962494,373.747467 480.271210,365.705963 482.146515,355.552551 
	C482.379913,354.288788 482.713318,353.043457 483.000366,351.789612 
	C483.498108,351.839813 483.995850,351.890045 484.493591,351.940247 
	C484.493591,359.764984 484.493591,367.589752 484.493591,376.118774 
	C491.011780,376.118774 496.933899,376.118591 502.856018,376.118805 
	C509.018097,376.119049 515.185425,375.989014 521.337524,376.237335 
	C522.479614,376.283417 523.560242,377.853668 524.669189,378.720490 
	C524.368713,379.136932 524.068237,379.553406 523.767761,379.969849 
	C522.124084,379.969849 520.480347,379.969849 518.026062,379.969849 
	C521.983826,388.910522 525.731323,397.376160 530.093140,407.229614 
	C533.426453,399.023468 536.496643,392.158264 538.976196,385.085968 
	C540.336853,381.204987 539.447632,380.653778 531.003723,379.204956 
	C533.037109,377.690796 534.060242,376.282013 535.149780,376.228577 
	C540.121338,375.984772 545.111572,376.121582 551.022339,376.121582 
	C550.490784,377.704681 550.266357,379.709991 549.716003,379.803802 
	C544.645874,380.668427 543.431274,384.858398 541.823608,388.616058 
	C534.178101,406.486542 526.656372,424.410065 518.990051,442.271515 
	C517.689575,445.301514 516.138977,448.286469 514.274475,450.996765 
	C511.761292,454.649994 507.923889,455.699615 503.675446,454.940613 
	C499.801849,454.248535 497.457428,451.825012 497.052368,447.883667 
	C496.676239,444.223877 498.085876,441.372986 501.566132,439.789246 
	C505.203339,438.134064 508.396118,438.934448 511.066559,441.765167 
	C511.940186,442.691223 512.503967,443.909546 513.675781,445.711243 
	C515.435059,441.650177 516.921631,438.218506 518.593994,434.450836 
z"/>
<path fill="#FDF8F9" opacity="1.000000" stroke="none" 
	d="
M96.538101,346.120514 
	C97.930817,346.719910 98.871918,347.318359 99.813026,347.916809 
	C98.981789,348.480865 98.216942,349.330933 97.303947,349.542877 
	C95.887360,349.871704 94.369858,349.765869 93.065010,349.835266 
	C92.720100,350.319855 92.378052,350.576111 92.380386,350.829163 
	C92.548035,368.973633 92.223206,387.143524 93.119499,405.252930 
	C93.712364,417.231537 99.941460,423.233887 109.928528,424.122009 
	C122.275520,425.219940 131.630432,417.597382 131.956741,405.196777 
	C132.394928,388.544922 132.088608,371.873566 132.114990,355.210602 
	C132.120346,351.830170 130.645782,349.982056 127.119987,349.638733 
	C125.972900,349.527008 124.920319,348.444763 123.824509,347.806427 
	C123.996536,347.247864 124.168571,346.689270 124.340599,346.130707 
	C130.411499,346.130707 136.483490,346.078461 142.551758,346.204681 
	C143.220856,346.218597 144.045502,347.158600 144.429245,347.868439 
	C144.561249,348.112640 143.564590,349.467896 143.089737,349.464386 
	C135.537750,349.409332 136.348175,355.047913 136.289139,359.707520 
	C136.126633,372.536316 135.766708,385.389008 136.330933,398.194977 
	C137.463165,423.892731 119.982895,430.233582 101.962646,428.660400 
	C84.215958,427.111115 75.007416,416.409363 74.989494,398.423645 
	C74.974548,383.426575 74.991058,368.429504 74.976517,353.432434 
	C74.975403,352.289246 74.837914,351.146179 74.792595,350.447113 
	C72.549095,347.988037 67.650894,352.227783 66.813065,346.119568 
	C76.857262,346.119568 86.471878,346.119568 96.538101,346.120514 
z"/>
<path fill="#FDF8F8" opacity="1.000000" stroke="none" 
	d="
M132.047943,202.158875 
	C132.606400,210.916916 132.775742,219.551651 132.817139,228.186996 
	C132.820862,228.962799 131.997269,229.742584 131.557892,230.520523 
	C130.782211,230.062469 129.450531,229.727264 129.317947,229.127136 
	C128.154922,223.863144 125.079102,226.054886 122.568512,227.467422 
	C113.738274,232.435532 104.434174,233.812210 94.668961,231.269409 
	C79.929970,227.431458 69.215820,214.329407 67.379120,196.671722 
	C65.597458,179.543152 70.860596,164.594116 84.733765,153.792969 
	C94.464256,146.217148 105.467720,144.442917 117.085617,149.843857 
	C119.037704,150.751343 121.073624,151.924057 123.124985,152.043488 
	C125.063011,152.156296 127.089912,151.096054 129.042130,150.445068 
	C129.875397,150.167206 130.618301,149.618332 131.402267,149.192612 
	C131.805634,150.013412 132.550919,150.830643 132.559555,151.655563 
	C132.646347,159.963043 132.612381,168.271759 132.612381,176.580139 
	C132.142960,176.852509 131.673538,177.124878 131.204117,177.397247 
	C130.401291,176.342484 129.460617,175.364990 128.818787,174.219986 
	C125.525421,168.344543 123.290108,161.526443 118.868286,156.703369 
	C108.585640,145.487640 94.207863,149.009506 90.060791,163.580765 
	C85.140259,180.869614 85.319389,198.548889 89.738503,215.880432 
	C93.281540,229.776016 107.072807,233.515411 118.291046,224.304489 
	C124.229736,219.428467 127.150604,212.866409 128.849228,205.545975 
	C129.154129,204.231995 130.668411,203.198639 132.047943,202.158875 
z"/>
<path fill="#FDF8F9" opacity="1.000000" stroke="none" 
	d="
M407.230225,222.618408 
	C416.663483,231.830276 413.671478,249.543182 401.562836,256.777039 
	C392.329956,262.292877 382.588257,262.279572 372.863098,258.058685 
	C367.712524,255.823227 363.738831,252.193817 363.489929,246.199875 
	C363.252319,240.478378 367.119019,237.220169 372.371094,234.371521 
	C366.089539,230.796631 365.074158,225.144257 366.273743,218.984665 
	C367.255524,213.943390 370.801941,211.021805 374.981750,209.926239 
	C372.710846,206.193192 369.342957,202.646774 368.286133,198.509964 
	C366.008667,189.594986 372.545746,180.688690 382.599213,179.362640 
	C387.962860,178.655167 393.633057,180.386581 399.177551,180.873230 
	C401.105011,181.042419 403.074188,180.832947 405.017731,180.700012 
	C408.205933,180.481949 411.602936,179.413071 414.492523,180.214676 
	C416.191559,180.686035 417.905701,184.033066 418.018494,186.170807 
	C418.084076,187.413467 414.599823,190.193848 413.414185,189.851746 
	C411.376160,189.263718 409.834961,186.822174 408.211487,185.043381 
	C407.898987,184.700989 408.166626,183.829147 408.166626,183.201569 
	C407.703125,183.018585 407.239594,182.835617 406.776093,182.652649 
	C406.344330,183.955185 405.156616,185.658752 405.601013,186.496460 
	C408.995270,192.894638 409.954987,199.302246 405.110565,205.168335 
	C399.645966,211.785355 392.126068,213.606949 383.932007,211.960175 
	C380.241699,211.218521 376.922394,211.095093 374.244598,213.866196 
	C373.267303,214.877563 372.576385,216.816559 372.827881,218.126282 
	C372.984924,218.943909 375.135071,219.866898 376.412506,219.899780 
	C383.232086,220.075272 390.072021,219.731277 396.876770,220.094254 
	C400.260406,220.274765 403.583893,221.583603 407.230225,222.618408 
M383.940979,257.757568 
	C385.270905,257.759735 386.621246,257.914307 387.927368,257.739014 
	C395.634460,256.704590 402.548462,254.135315 406.281342,246.667633 
	C409.711029,239.806564 406.884155,235.087723 399.354828,234.920441 
	C392.542023,234.769073 385.717010,234.717972 378.911896,234.988403 
	C377.229553,235.055252 375.091858,236.128448 374.034668,237.440811 
	C367.130707,246.011063 371.225037,254.963974 383.940979,257.757568 
M394.999847,196.394287 
	C394.830353,193.408829 394.734314,190.416885 394.472229,187.439575 
	C394.163422,183.931366 392.291992,181.959381 388.624756,182.017639 
	C385.073486,182.074066 382.131104,183.380417 381.927216,187.250687 
	C381.631927,192.855606 381.720612,198.499573 382.002838,204.108902 
	C382.167664,207.384033 384.251709,208.980087 387.705750,209.054810 
	C391.277252,209.132080 393.484863,207.747086 394.124786,204.230377 
	C394.539886,201.949249 394.716309,199.624710 394.999847,196.394287 
z"/>
<path fill="#FDF8F8" opacity="1.000000" stroke="none" 
	d="
M287.459290,178.252197 
	C300.873077,177.914062 306.155487,183.019897 306.225983,196.020538 
	C306.279236,205.844711 306.253479,215.669312 306.272461,225.493698 
	C306.273102,225.818710 306.377502,226.143524 306.547058,227.126465 
	C308.381866,227.126465 310.347015,226.981750 312.269867,227.203751 
	C312.957001,227.283081 313.541718,228.249588 314.173187,228.811157 
	C313.559418,229.409729 312.952362,230.521515 312.330933,230.529587 
	C303.507019,230.644272 294.680786,230.644852 285.856659,230.541061 
	C285.175598,230.533066 284.506195,229.536575 283.831360,228.999527 
	C284.562073,228.373795 285.203857,227.446259 286.045837,227.198242 
	C287.112366,226.884033 288.341614,227.122314 289.942902,227.122314 
	C289.942902,213.993561 290.162170,201.067200 289.821259,188.155594 
	C289.705536,183.771606 285.287476,181.879044 281.219452,184.185440 
	C276.030762,187.127243 272.431580,191.867096 272.065613,197.709167 
	C271.464600,207.303497 271.902802,216.962936 271.902802,226.439758 
	C272.503845,226.752625 272.761536,226.933777 273.047760,227.028122 
	C274.871918,227.629257 276.702393,228.211258 278.530762,228.799561 
	C276.726807,229.407639 274.936310,230.488617 273.116516,230.540405 
	C265.962036,230.744019 258.796204,230.713303 251.640091,230.540665 
	C250.355408,230.509659 249.096832,229.396622 247.826202,228.783142 
	C249.133270,228.227814 250.400955,227.523361 251.759903,227.164444 
	C252.841019,226.878906 254.033646,227.015488 255.464996,226.951843 
	C255.464996,212.511047 255.464996,198.297318 255.464996,184.201248 
	C253.555496,181.532639 248.528656,185.671509 247.570969,180.254013 
	C255.674103,180.254013 263.431183,180.254013 271.582855,180.254013 
	C271.746735,182.277634 271.913391,184.335693 272.007263,185.494614 
	C276.880615,183.165710 281.958984,180.738815 287.459290,178.252197 
z"/>
<path fill="#FDF7F8" opacity="1.000000" stroke="none" 
	d="
M349.913879,330.016632 
	C342.617096,330.016632 335.805481,330.016632 328.026947,330.016632 
	C329.022766,324.498047 333.491150,327.439423 335.997742,325.683105 
	C335.997742,311.883118 335.997742,297.666382 335.997742,283.100342 
	C334.525269,283.027130 333.012451,283.191895 331.652466,282.810944 
	C330.494202,282.486542 329.511810,281.533966 328.451630,280.859253 
	C329.438599,280.278625 330.415100,279.216705 331.414185,279.194916 
	C338.223297,279.046692 345.037170,279.117340 352.221161,279.117340 
	C352.460236,281.453064 352.673340,283.534851 352.766998,284.450012 
	C358.067139,282.239594 363.353760,278.951141 369.054779,277.890594 
	C379.785919,275.894226 386.767181,282.260620 386.976013,293.202881 
	C387.154022,302.529938 387.015320,311.863068 387.016632,321.193512 
	C387.016876,322.829742 387.016663,324.466003 387.016663,325.499237 
	C389.711761,327.729126 394.449646,323.932617 395.158295,329.747681 
	C384.769196,329.747681 374.697144,329.747681 364.625092,329.747681 
	C364.432678,329.197235 364.240234,328.646820 364.047791,328.096375 
	C366.138611,327.270599 368.229462,326.444855 370.916962,325.383453 
	C370.916962,313.591766 371.138733,301.124786 370.816162,288.671936 
	C370.671600,283.091187 365.445770,280.434875 361.363647,284.108185 
	C357.729370,287.378540 353.697998,292.032654 353.120880,296.499695 
	C351.876495,306.131317 352.738373,316.035065 352.738373,325.179382 
	C354.577423,327.741425 359.802734,324.103607 359.014099,330.016632 
	C355.998932,330.016632 353.198975,330.016632 349.913879,330.016632 
z"/>
<path fill="#FEFBFB" opacity="1.000000" stroke="none" 
	d="
M185.886719,374.781006 
	C196.304260,375.777832 200.807907,380.711426 200.968460,391.320587 
	C201.129211,401.943146 201.003769,412.570007 201.003769,423.085358 
	C203.983109,423.732727 206.568695,424.294556 209.154282,424.856354 
	C209.013031,425.453186 208.871780,426.050049 208.730515,426.646881 
	C198.710297,426.646881 188.690063,426.646881 178.669830,426.646881 
	C178.511566,426.110840 178.353302,425.574829 178.195038,425.038788 
	C180.203476,424.437073 182.211899,423.835388 184.723450,423.082947 
	C184.723450,410.736389 185.028442,397.970215 184.577377,385.230804 
	C184.389923,379.936432 179.619690,378.090942 175.075302,381.120117 
	C170.154358,384.400208 166.738480,389.228424 166.392242,395.070526 
	C165.842743,404.342133 166.245667,413.670197 166.245667,422.865082 
	C168.785736,423.696930 171.026978,424.430908 173.268219,425.164886 
	C173.092453,425.666473 172.916687,426.168030 172.740921,426.669617 
	C162.689392,426.669617 152.637848,426.669617 142.586304,426.669617 
	C142.442902,426.088501 142.299484,425.507416 142.156067,424.926300 
	C144.574158,424.357727 146.992249,423.789124 149.793793,423.130341 
	C149.793793,409.047394 149.793793,394.667511 149.793793,379.872253 
	C148.224701,379.872253 146.720337,380.101105 145.332993,379.796631 
	C144.305405,379.571106 143.430038,378.652039 142.486847,378.041962 
	C143.509155,377.491547 144.521576,376.487091 145.555359,376.464539 
	C152.195190,376.320068 158.839691,376.390747 165.923096,376.390747 
	C166.105408,378.860962 166.267502,381.057404 166.487152,384.033325 
	C171.797104,377.861755 177.771835,374.438660 185.886719,374.781006 
z"/>
<path fill="#FDF9FA" opacity="1.000000" stroke="none" 
	d="
M143.880859,207.931076 
	C150.261292,205.827454 156.311630,203.754669 162.493698,202.208710 
	C165.654251,201.418365 169.050827,201.571838 172.771133,201.263000 
	C172.771133,197.908432 172.789658,194.944839 172.767563,191.981537 
	C172.708755,184.095322 170.397781,181.716019 162.595016,182.076645 
	C159.521729,182.218674 156.481628,183.078400 152.529831,183.767685 
	C153.838943,184.866623 154.234268,185.395294 154.757675,185.606384 
	C158.558960,187.139450 159.576553,190.008759 158.498062,193.686707 
	C157.261154,197.905014 153.907425,198.576752 150.141205,198.144943 
	C146.184448,197.691284 143.763641,195.046967 144.335526,191.422913 
	C144.803680,188.456146 146.474503,185.006348 148.736893,183.118698 
	C156.242844,176.855927 174.944153,177.230209 182.781067,183.233093 
	C186.657196,186.202103 188.222763,190.230148 188.220383,194.995407 
	C188.216141,203.486298 188.170181,211.977829 188.269241,220.467606 
	C188.292831,222.489532 188.819992,224.505600 189.115524,226.524353 
	C189.642929,226.652710 190.170319,226.781067 190.697723,226.909409 
	C191.584122,225.379654 192.356827,223.765747 193.402161,222.353653 
	C193.972351,221.583435 195.004608,221.155258 195.828461,220.572815 
	C196.096313,221.570847 196.748962,222.643600 196.571899,223.555206 
	C194.966904,231.818390 182.689941,234.973114 175.830185,228.911026 
	C174.861984,228.055389 174.101761,226.964417 173.065216,225.775970 
	C166.685242,231.816788 159.186234,233.289169 150.932724,231.066055 
	C139.650635,228.027191 136.308456,217.473297 143.880859,207.931076 
M172.689423,205.967438 
	C169.202499,205.946762 165.489929,205.182892 162.303055,206.150497 
	C159.933990,206.869781 157.268982,209.516098 156.501740,211.877808 
	C155.534500,214.855164 155.687759,218.629517 156.641373,221.655472 
	C157.353745,223.916000 159.877609,226.730881 161.999084,227.125443 
	C164.424133,227.576492 168.035446,226.329422 169.772842,224.517578 
	C171.610687,222.600998 172.246262,219.211609 172.680008,216.355148 
	C173.149307,213.264618 172.778503,210.046539 172.689423,205.967438 
z"/>
<path fill="#FEFAFB" opacity="1.000000" stroke="none" 
	d="
M328.866577,306.701965 
	C327.354675,318.630432 321.402771,326.708588 310.146210,329.959290 
	C299.326569,333.083893 289.283112,331.239166 281.158905,322.917786 
	C273.110626,314.674194 271.771942,301.186676 277.681091,290.944763 
	C283.553894,280.765839 296.195709,275.741516 308.410950,278.731659 
	C320.304871,281.643158 328.203125,290.913483 328.863220,302.764954 
	C328.927979,303.927460 328.872375,305.096710 328.866577,306.701965 
M292.825287,288.725006 
	C292.753021,299.008026 292.306885,309.307526 292.757874,319.567535 
	C293.002930,325.141144 296.720306,327.980042 301.476746,327.974030 
	C306.287384,327.967957 309.936798,325.173706 310.217224,319.604980 
	C310.717255,309.675903 310.546631,299.697388 310.254913,289.751343 
	C310.126801,285.383453 307.700806,282.218933 302.921844,281.694366 
	C298.003326,281.154419 294.481354,282.941101 292.825287,288.725006 
z"/>
<path fill="#FDFAFA" opacity="1.000000" stroke="none" 
	d="
M250.772156,295.999878 
	C250.772156,281.381958 250.772156,267.264069 250.772156,254.193451 
	C248.592178,250.820419 243.271713,255.273163 243.006668,249.332397 
	C251.027405,249.332397 258.628845,249.332397 266.709167,249.332397 
	C266.709167,274.919983 266.709167,300.306274 266.709167,325.057892 
	C269.085907,328.046051 274.503845,323.762360 274.926361,329.803101 
	C264.120941,329.803101 253.683990,329.803101 242.972260,329.803101 
	C243.102432,323.695801 248.443649,328.066223 250.772171,324.975861 
	C250.772171,316.079254 250.772171,306.289581 250.772156,295.999878 
z"/>
<path fill="#FEFCFD" opacity="1.000000" stroke="none" 
	d="
M216.995270,310.997009 
	C216.995270,291.374481 216.995270,272.251678 216.995270,253.633850 
	C214.728943,251.006256 209.769150,255.073044 209.028366,249.371918 
	C217.073715,249.371918 224.679489,249.371918 232.846588,249.371918 
	C232.846588,274.920898 232.846588,300.452118 232.846588,325.165558 
	C235.379044,328.019989 240.610138,323.762726 241.030670,329.845306 
	C230.290970,329.845306 220.005081,329.845306 209.723083,329.845306 
	C209.614166,326.622559 209.614166,326.622559 216.995270,326.129242 
	C216.995270,321.294586 216.995270,316.395660 216.995270,310.997009 
z"/>
<path fill="#FDF9FA" opacity="1.000000" stroke="none" 
	d="
M334.832458,384.196716 
	C337.219482,388.973053 339.370728,393.476044 342.021027,399.023621 
	C330.035675,399.023621 319.794342,399.023621 309.144073,399.023621 
	C309.144073,403.919525 308.865234,408.380829 309.218445,412.791504 
	C309.612549,417.712982 310.814575,422.468506 316.491943,424.105774 
	C322.275238,425.773621 327.549988,424.572357 331.485321,420.088348 
	C333.717682,417.544800 334.923584,414.113647 336.686462,411.138397 
	C337.416077,409.906982 338.393524,408.822418 339.694458,407.999725 
	C339.871094,418.023041 332.187408,426.508270 322.469513,428.009430 
	C308.983826,430.092590 297.374359,423.765411 293.143127,412.026489 
	C288.695465,399.687103 293.472870,385.241943 304.170044,378.684906 
	C314.603271,372.289764 325.875366,374.230408 334.832458,384.196716 
M323.073090,387.815582 
	C323.029572,386.990295 323.063354,386.152222 322.929352,385.341919 
	C322.308655,381.588409 320.727966,378.702484 316.360596,378.658661 
	C311.828522,378.613190 309.757874,381.483429 309.302185,385.451477 
	C308.915863,388.815247 309.222504,392.258575 309.222504,395.992828 
	C313.143341,395.992828 316.749969,396.003082 320.356415,395.984833 
	C321.145081,395.980835 321.933197,395.875214 323.121277,395.786621 
	C323.121277,393.264893 323.121277,390.994873 323.073090,387.815582 
z"/>
<path fill="#FDF9F9" opacity="1.000000" stroke="none" 
	d="
M209.165894,312.744995 
	C206.603851,322.604919 201.073944,329.274658 191.051163,330.850555 
	C180.640305,332.487488 171.334900,329.943604 165.083435,320.838257 
	C158.549622,311.321686 158.459488,301.139893 163.888916,291.096130 
	C169.248688,281.181244 180.451004,275.998077 190.344681,278.404236 
	C200.700836,280.922882 208.715149,290.869019 208.994247,302.076050 
	C198.782349,302.076050 188.564362,302.076050 177.888870,302.076050 
	C177.888870,306.751160 177.772079,310.892761 177.919327,315.024963 
	C178.091583,319.859222 179.064590,324.608063 184.137329,326.604401 
	C189.653793,328.775330 195.286987,328.044006 199.365692,323.682434 
	C202.097473,320.761200 203.810760,316.783447 205.552872,313.077759 
	C206.697632,310.642761 207.527252,310.073029 209.165894,312.744995 
M191.763077,297.191162 
	C191.628326,293.877655 191.689804,290.541229 191.306046,287.256805 
	C190.885574,283.658295 188.782303,281.629700 184.941849,281.594482 
	C180.855682,281.557068 178.611130,283.861084 178.177490,287.521637 
	C177.739548,291.218506 178.080978,295.007690 178.080978,298.903625 
	C182.519516,298.903625 186.494705,298.926239 190.468750,298.868713 
	C190.866669,298.862946 191.257553,298.370880 191.763077,297.191162 
z"/>
<path fill="#FDF7F8" opacity="1.000000" stroke="none" 
	d="
M495.840759,203.015930 
	C486.904877,203.015945 478.451813,203.015945 469.740448,203.015945 
	C469.740448,207.665283 469.632294,211.799438 469.768066,215.925568 
	C469.935028,220.998993 471.144684,225.845169 476.630157,227.508636 
	C482.409668,229.261276 488.075378,228.303940 492.113373,223.466797 
	C494.286743,220.863342 495.401001,217.397064 497.178375,214.431107 
	C497.879089,213.261856 499.084106,212.394821 500.456940,211.787186 
	C498.970886,225.604065 488.364075,233.423935 474.408539,231.849823 
	C460.352875,230.264404 450.849976,218.017578 452.105835,203.107269 
	C453.341156,188.440781 465.118683,177.824417 479.114624,178.761292 
	C490.819031,179.544800 501.145203,190.928238 500.706482,203.015930 
	C499.257812,203.015930 497.790710,203.015930 495.840759,203.015930 
M481.489227,184.168686 
	C475.300079,180.190201 470.453094,182.393402 469.791168,189.644440 
	C469.511536,192.707397 469.744537,195.817154 469.744537,199.085922 
	C474.552643,199.085922 478.915039,199.085922 484.412109,199.085922 
	C483.534180,194.024750 482.737335,189.431244 481.489227,184.168686 
z"/>
<path fill="#FDF7F8" opacity="1.000000" stroke="none" 
	d="
M340.852570,231.976898 
	C325.855804,231.549438 316.081635,223.188751 314.191681,209.585251 
	C312.349365,196.324692 320.059723,183.575409 332.276062,179.682327 
	C347.039398,174.977539 363.388977,187.292969 362.676697,203.015945 
	C357.566345,203.015945 352.430725,203.015961 347.295105,203.015961 
	C342.316589,203.015961 337.338074,203.015945 331.416168,203.015945 
	C331.733154,209.033325 331.332397,214.890121 332.497345,220.416916 
	C334.291870,228.930847 346.105530,231.237091 353.091339,224.427780 
	C355.709229,221.876038 357.044647,218.024109 359.043671,214.814102 
	C359.812866,213.578964 360.801605,212.480560 362.101349,211.638641 
	C362.535400,222.720566 353.916565,230.769119 340.852570,231.976898 
M345.757965,197.380341 
	C345.557648,194.253754 345.463379,191.115799 345.129303,188.003571 
	C344.742371,184.399445 342.633972,182.230118 338.985748,182.086075 
	C335.114227,181.933228 332.553436,184.121307 332.090332,187.813477 
	C331.630035,191.483521 331.989502,195.256393 331.989502,199.868088 
	C336.799042,199.315445 341.225677,198.806808 345.757965,197.380341 
z"/>
<path fill="#FCF3F4" opacity="1.000000" stroke="none" 
	d="
M197.458923,181.872192 
	C198.226654,181.015442 198.992401,180.183975 199.770172,180.172607 
	C206.738052,180.070694 213.708038,180.113144 220.829178,180.113144 
	C221.096786,182.143433 221.329559,183.909393 221.505386,185.243347 
	C225.313171,182.947800 228.890701,179.982132 233.002884,178.508469 
	C238.657486,176.482086 244.272446,179.143097 244.900909,184.060562 
	C245.287384,187.084686 244.421707,191.514496 242.371002,193.257843 
	C240.275131,195.039581 235.850204,195.154068 232.800171,194.452881 
	C229.451340,193.682999 228.431122,190.240265 228.921280,186.722626 
	C229.030411,185.939346 228.937271,185.127899 228.410721,184.264999 
	C217.186417,196.823807 223.607605,212.231918 221.164246,226.889404 
	C225.034882,226.889404 228.254471,226.889404 231.474045,226.889404 
	C231.772202,227.409363 232.070343,227.929321 232.368500,228.449280 
	C231.412613,229.262527 230.469040,230.765167 229.498917,230.782501 
	C219.682327,230.957840 209.860626,230.943680 200.043015,230.799942 
	C199.164597,230.787079 198.304916,229.492722 197.436539,228.793518 
	C198.276581,228.232361 199.060287,227.337402 199.969147,227.184021 
	C201.546951,226.917740 203.202118,227.110001 205.088852,227.110001 
	C205.088852,212.593048 205.088852,198.519089 205.088852,184.450989 
	C202.516891,183.718079 199.989700,182.997925 197.458923,181.872192 
z"/>
<path fill="#FCF4F5" opacity="1.000000" stroke="none" 
	d="
M389.618439,382.234955 
	C389.658447,386.923798 387.936279,390.579559 383.602020,391.118530 
	C380.714661,391.477570 376.850586,390.599335 374.763428,388.756989 
	C372.979431,387.182251 373.103088,383.446320 372.180328,379.884094 
	C361.300354,393.214417 367.444000,408.606445 365.480286,422.095276 
	C368.994781,425.162109 374.434875,420.602448 376.380951,426.756439 
	C364.440430,426.756439 353.039276,426.756439 341.335632,426.756439 
	C341.711884,420.692017 347.007477,425.115723 349.110413,422.115601 
	C349.110413,408.726196 349.110413,394.650177 349.110413,380.126984 
	C347.482819,380.047028 345.839844,380.174469 344.309143,379.818726 
	C343.271088,379.577454 342.390747,378.657654 341.439850,378.041321 
	C342.362762,377.397461 343.273071,376.217529 344.210571,376.195587 
	C351.019562,376.036011 357.834045,376.109772 364.803009,376.109772 
	C365.096466,378.229828 365.360657,380.138397 365.646484,382.203339 
	C378.023010,371.381470 386.428925,371.323639 389.618439,382.234955 
z"/>
<path fill="#FCF6F7" opacity="1.000000" stroke="none" 
	d="
M407.317688,375.041229 
	C409.723022,375.204712 411.791443,375.096771 413.658051,375.658966 
	C417.926819,376.944611 422.107544,378.826599 426.564240,373.958435 
	C426.564240,380.515533 426.564240,385.940063 426.564240,391.364624 
	C426.161865,391.603363 425.759491,391.842102 425.357117,392.080872 
	C424.337524,390.535797 423.168121,389.068085 422.323853,387.432556 
	C418.311432,379.659882 412.589966,376.867584 404.682373,379.094757 
	C401.170990,380.083710 398.814667,382.207825 398.909912,386.202026 
	C399.000977,390.023407 401.739227,391.253754 404.813202,391.868500 
	C408.889740,392.683716 413.031982,393.166016 417.117554,393.941254 
	C426.844727,395.787018 431.211243,400.910736 430.830719,409.875549 
	C430.441437,419.047668 423.644043,427.023926 415.237640,428.050079 
	C413.431702,428.270508 411.535736,428.412720 409.764343,428.108002 
	C406.834015,427.603943 403.980988,426.183472 401.077118,426.129303 
	C398.392029,426.079224 395.682922,427.315399 392.666809,428.063873 
	C392.666809,421.796234 392.666809,415.698120 392.666809,407.747864 
	C394.463318,409.672363 395.458038,410.596283 396.286224,411.650970 
	C399.107910,415.244110 401.369690,419.479431 404.785370,422.351410 
	C408.896454,425.808136 414.399872,425.848358 418.782532,422.837097 
	C420.936462,421.357208 422.655792,417.713257 422.598022,415.092163 
	C422.560394,413.386078 419.210144,411.019165 416.912109,410.266296 
	C413.335175,409.094513 409.346069,409.257965 405.611603,408.474457 
	C396.530884,406.569458 392.316925,401.907990 391.986969,393.805328 
	C391.623230,384.873291 396.230377,378.139435 404.459595,375.610077 
	C405.249695,375.367218 406.078339,375.249786 407.317688,375.041229 
z"/>
<path fill="#FCF5F6" opacity="1.000000" stroke="none" 
	d="
M267.054626,376.667419 
	C268.536407,382.173370 263.796143,378.681641 261.978424,380.828247 
	C265.586884,388.997589 269.364746,397.550507 273.651215,407.254883 
	C276.996979,398.986572 280.092712,391.747986 282.828857,384.375916 
	C283.956451,381.337830 282.486298,379.711639 279.056213,379.796204 
	C278.107788,379.819580 277.131531,378.715790 276.168060,378.129150 
	C277.147644,377.542664 278.106018,376.496338 279.110565,376.449890 
	C283.264801,376.257935 287.436371,376.280853 291.593445,376.438751 
	C292.474823,376.472229 293.322083,377.404449 294.185059,377.922607 
	C293.492310,378.615326 292.761200,379.274170 292.113861,380.006958 
	C290.091736,382.295837 287.418610,384.304596 286.215179,386.971313 
	C280.615631,399.379395 275.471710,411.992371 270.028046,424.472412 
	C269.399963,425.912354 267.920319,426.980835 266.835480,428.221558 
	C265.693695,427.018341 264.113586,426.010040 263.478455,424.581573 
	C257.608826,411.380371 251.788193,398.154236 246.227814,384.820892 
	C244.815933,381.435272 243.472977,378.815735 238.936188,379.925385 
	C238.805359,379.374695 238.674515,378.824036 238.543686,378.273376 
	C239.762512,377.637604 240.973129,376.470978 242.201477,376.452026 
	C250.356659,376.326050 258.515625,376.445923 267.054626,376.667419 
z"/>
<path fill="#FDFAFA" opacity="1.000000" stroke="none" 
	d="
M427.771576,194.997101 
	C427.771576,191.180801 427.771576,187.865479 427.771576,185.225586 
	C426.551636,182.149338 420.469452,185.875351 422.180206,179.950912 
	C429.336060,179.950912 436.452362,179.950912 444.025024,179.950912 
	C444.025024,195.676682 444.025024,211.237411 444.025024,227.138580 
	C446.276947,227.138580 448.095886,226.982880 449.863861,227.215134 
	C450.572479,227.308228 451.168976,228.254868 451.816498,228.813004 
	C451.184814,229.401794 450.559387,230.495621 449.920563,230.503525 
	C440.606018,230.618546 431.288666,230.646683 421.975616,230.484940 
	C421.209442,230.471634 420.469727,228.932724 419.097321,227.417892 
	C422.646454,227.195236 424.932770,227.051804 427.771576,226.873703 
	C427.771576,216.315689 427.771576,205.906891 427.771576,194.997101 
z"/>
<path fill="#FEFBFB" opacity="1.000000" stroke="none" 
	d="
M456.729889,423.195221 
	C459.187347,424.788239 463.064301,421.896790 464.343323,426.679016 
	C453.347229,426.679016 442.814148,426.679016 432.281067,426.679016 
	C432.139160,426.102203 431.997284,425.525391 431.855377,424.948578 
	C434.272919,424.374451 436.690430,423.800354 439.676758,423.091156 
	C439.676758,409.270569 439.676758,394.909821 439.676758,380.059814 
	C437.371246,380.059814 434.960938,380.059814 432.550598,380.059814 
	C432.270752,379.572388 431.990906,379.084961 431.711060,378.597534 
	C432.724213,377.776031 433.716675,376.274384 434.753784,376.242859 
	C441.707642,376.031555 448.671021,376.132996 456.425659,376.132996 
	C456.425659,391.998474 456.425659,407.429596 456.729889,423.195221 
z"/>
<path fill="#FEFBFB" opacity="1.000000" stroke="none" 
	d="
M230.733795,376.126892 
	C234.542068,375.585693 234.939880,377.432739 234.920166,380.206421 
	C234.818604,394.495575 234.873062,408.785858 234.873062,422.728394 
	C237.123322,425.357819 241.882248,421.478210 243.069870,426.733643 
	C232.196198,426.733643 221.783691,426.733643 211.367920,426.733643 
	C211.423996,424.274719 211.423996,424.274719 218.460388,423.276947 
	C218.460388,409.108429 218.460388,394.891846 218.460388,380.282471 
	C216.066010,380.126892 213.661606,379.970703 211.257202,379.814514 
	C210.982559,379.408875 210.707932,379.003235 210.433304,378.597626 
	C211.554016,377.774597 212.644501,376.293701 213.800568,376.240631 
	C219.278000,375.989105 224.773361,376.127258 230.733795,376.126892 
z"/>
<path fill="#FDF9F9" opacity="1.000000" stroke="none" 
	d="
M447.260254,368.783722 
	C442.281158,367.455933 439.566437,364.617981 440.158936,359.685028 
	C440.619598,355.849640 442.904755,353.326630 446.946350,352.827240 
	C451.611603,352.250793 455.410034,355.022003 455.977295,359.358612 
	C456.673309,364.679596 454.026154,367.694672 447.260254,368.783722 
z"/>
<path fill="#FDF9FA" opacity="1.000000" stroke="none" 
	d="
M429.367340,159.638916 
	C432.582886,158.460052 435.824768,156.481827 438.480652,157.084747 
	C440.663971,157.580383 443.440063,161.050476 443.601898,163.366547 
	C443.780121,165.916763 441.896881,169.931427 439.769104,170.972260 
	C437.366119,172.147705 433.080811,171.694229 430.712036,170.203964 
	C427.096008,167.929062 427.138611,163.785675 429.367340,159.638916 
z"/>
<path fill="#FDF9FA" opacity="1.000000" stroke="none" 
	d="
M218.957260,362.560181 
	C218.352127,358.031403 219.764297,354.312927 223.748184,353.491638 
	C226.524231,352.919312 230.330414,353.912659 232.683411,355.595306 
	C235.571838,357.660828 235.945786,361.704987 233.658112,364.570007 
	C232.073563,366.554474 229.245285,368.373810 226.793808,368.644135 
	C223.109268,369.050446 220.198334,366.804932 218.957260,362.560181 
z"/>
<path fill="#C51533" opacity="1.000000" stroke="none" 
	d="
M383.529297,257.710602 
	C371.225037,254.963974 367.130707,246.011063 374.034668,237.440811 
	C375.091858,236.128448 377.229553,235.055252 378.911896,234.988403 
	C385.717010,234.717972 392.542023,234.769073 399.354828,234.920441 
	C406.884155,235.087723 409.711029,239.806564 406.281342,246.667633 
	C402.548462,254.135315 395.634460,256.704590 387.927368,257.739014 
	C386.621246,257.914307 385.270905,257.759735 383.529297,257.710602 
z"/>
<path fill="#C51936" opacity="1.000000" stroke="none" 
	d="
M394.999756,196.856949 
	C394.716309,199.624710 394.539886,201.949249 394.124786,204.230377 
	C393.484863,207.747086 391.277252,209.132080 387.705750,209.054810 
	C384.251709,208.980087 382.167664,207.384033 382.002838,204.108902 
	C381.720612,198.499573 381.631927,192.855606 381.927216,187.250687 
	C382.131104,183.380417 385.073486,182.074066 388.624756,182.017639 
	C392.291992,181.959381 394.163422,183.931366 394.472229,187.439575 
	C394.734314,190.416885 394.830353,193.408829 394.999756,196.856949 
z"/>
<path fill="#C51936" opacity="1.000000" stroke="none" 
	d="
M172.731766,206.425751 
	C172.778503,210.046539 173.149307,213.264618 172.680008,216.355148 
	C172.246262,219.211609 171.610687,222.600998 169.772842,224.517578 
	C168.035446,226.329422 164.424133,227.576492 161.999084,227.125443 
	C159.877609,226.730881 157.353745,223.916000 156.641373,221.655472 
	C155.687759,218.629517 155.534500,214.855164 156.501740,211.877808 
	C157.268982,209.516098 159.933990,206.869781 162.303055,206.150497 
	C165.489929,205.182892 169.202499,205.946762 172.731766,206.425751 
z"/>
<path fill="#C51936" opacity="1.000000" stroke="none" 
	d="
M292.902039,288.317871 
	C294.481354,282.941101 298.003326,281.154419 302.921844,281.694366 
	C307.700806,282.218933 310.126801,285.383453 310.254913,289.751343 
	C310.546631,299.697388 310.717255,309.675903 310.217224,319.604980 
	C309.936798,325.173706 306.287384,327.967957 301.476746,327.974030 
	C296.720306,327.980042 293.002930,325.141144 292.757874,319.567535 
	C292.306885,309.307526 292.753021,299.008026 292.902039,288.317871 
z"/>
<path fill="#C51533" opacity="1.000000" stroke="none" 
	d="
M323.097168,388.270203 
	C323.121277,390.994873 323.121277,393.264893 323.121277,395.786621 
	C321.933197,395.875214 321.145081,395.980835 320.356415,395.984833 
	C316.749969,396.003082 313.143341,395.992828 309.222504,395.992828 
	C309.222504,392.258575 308.915863,388.815247 309.302185,385.451477 
	C309.757874,381.483429 311.828522,378.613190 316.360596,378.658661 
	C320.727966,378.702484 322.308655,381.588409 322.929352,385.341919 
	C323.063354,386.152222 323.029572,386.990295 323.097168,388.270203 
z"/>
<path fill="#C51835" opacity="1.000000" stroke="none" 
	d="
M191.707397,297.647827 
	C191.257553,298.370880 190.866669,298.862946 190.468750,298.868713 
	C186.494705,298.926239 182.519516,298.903625 178.080978,298.903625 
	C178.080978,295.007690 177.739548,291.218506 178.177490,287.521637 
	C178.611130,283.861084 180.855682,281.557068 184.941849,281.594482 
	C188.782303,281.629700 190.885574,283.658295 191.306046,287.256805 
	C191.689804,290.541229 191.628326,293.877655 191.707397,297.647827 
z"/>
<path fill="#C51835" opacity="1.000000" stroke="none" 
	d="
M481.714874,184.503204 
	C482.737335,189.431244 483.534180,194.024750 484.412109,199.085922 
	C478.915039,199.085922 474.552643,199.085922 469.744537,199.085922 
	C469.744537,195.817154 469.511536,192.707397 469.791168,189.644440 
	C470.453094,182.393402 475.300079,180.190201 481.714874,184.503204 
z"/>
<path fill="#C51835" opacity="1.000000" stroke="none" 
	d="
M345.705139,197.839249 
	C341.225677,198.806808 336.799042,199.315445 331.989502,199.868088 
	C331.989502,195.256393 331.630035,191.483521 332.090332,187.813477 
	C332.553436,184.121307 335.114227,181.933228 338.985748,182.086075 
	C342.633972,182.230118 344.742371,184.399445 345.129303,188.003571 
	C345.463379,191.115799 345.557648,194.253754 345.705139,197.839249 
z"/>
</svg>