<svg version="1.1" id="Layer_1" xmlns="http://www.w3.org/2000/svg" xmlns:xlink="http://www.w3.org/1999/xlink" x="0px" y="0px"
	 width="100%" viewBox="0 0 1274 1274" enable-background="new 0 0 1274 1274" xml:space="preserve">
<path fill="#FFFFFF" opacity="1.000000" stroke="none" 
	d="
M619.000000,1275.000000 
	C412.666656,1275.000000 206.833328,1275.000000 1.000000,1275.000000 
	C1.000000,850.333313 1.000000,425.666656 1.000000,1.000000 
	C425.666656,1.000000 850.333313,1.000000 1275.000000,1.000000 
	C1275.000000,425.666656 1275.000000,850.333313 1275.000000,1275.000000 
	C1056.500000,1275.000000 838.000000,1275.000000 619.000000,1275.000000 
M913.001770,876.411377 
	C956.185181,889.099731 999.662170,889.866272 1043.196899,878.762512 
	C1085.051636,868.087158 1121.442871,847.389709 1152.476562,817.296509 
	C1156.737305,813.164795 1159.085815,808.527588 1157.356079,802.543091 
	C1154.150146,791.450745 1141.894165,789.155945 1132.760132,797.659180 
	C1077.607300,849.003540 1012.741516,868.500671 938.860046,854.008057 
	C817.256348,830.154236 740.765503,706.369019 772.658813,586.681091 
	C802.542358,474.534973 913.499451,406.187927 1027.280273,429.839996 
	C1125.702026,450.299316 1198.353882,538.959045 1198.991455,639.379028 
	C1199.124512,660.325867 1196.218872,680.858887 1190.614380,701.023132 
	C1189.293823,705.774353 1189.499878,710.291687 1192.691040,714.272400 
	C1196.067505,718.484070 1200.512207,720.596863 1205.893066,719.581604 
	C1212.023193,718.424988 1215.695923,714.539001 1217.395020,708.474060 
	C1227.908569,670.946167 1229.740845,633.089783 1222.187012,594.792175 
	C1195.464722,459.311890 1061.591309,372.299805 927.533325,403.327698 
	C784.530518,436.425842 701.855652,587.201294 752.467468,724.962402 
	C780.470520,801.184326 834.736816,851.369934 913.001770,876.411377 
M390.500000,428.991333 
	C401.606049,428.991333 412.712097,428.991333 423.888733,428.991333 
	C423.888733,418.128693 423.888733,407.881927 423.888733,397.128296 
	C421.819733,397.128296 420.030518,397.128296 418.241333,397.128296 
	C355.426056,397.128296 292.610077,396.977386 229.796051,397.258179 
	C217.526810,397.313019 205.107849,398.117493 193.028656,400.169647 
	C153.244034,406.928772 119.562675,425.273773 93.169067,456.012634 
	C64.628860,489.251556 51.698269,528.247498 51.718807,571.839050 
	C51.767170,674.476196 51.731190,777.113403 51.740864,879.750549 
	C51.741016,881.361145 51.888439,882.971802 51.971375,884.669250 
	C62.544727,884.669250 72.774162,884.669250 83.290520,884.669250 
	C83.290520,882.352234 83.290520,880.366760 83.290520,878.381287 
	C83.290520,778.076782 83.185532,677.772034 83.429558,577.468140 
	C83.458557,565.549500 84.097466,553.348877 86.658951,541.766663 
	C101.640976,474.022614 158.185699,429.050079 227.546539,428.999725 
	C281.531006,428.960541 335.515503,428.991547 390.500000,428.991333 
M596.204163,648.500000 
	C596.204163,614.434998 596.204163,580.369995 596.204163,546.246338 
	C585.747131,546.246338 575.996643,546.246338 566.043762,546.246338 
	C566.043762,659.182007 566.043762,771.847778 566.043762,884.656433 
	C576.182983,884.656433 586.062866,884.656433 596.204346,884.656433 
	C596.204346,806.040466 596.204346,727.770203 596.204163,648.500000 
M393.500061,610.607544 
	C320.114349,610.607544 246.728622,610.607544 173.224335,610.607544 
	C173.224335,621.088745 173.224335,630.953430 173.224335,640.812134 
	C256.976440,640.812134 340.347321,640.812134 423.815796,640.812134 
	C423.815796,630.662476 423.815796,620.789551 423.815796,610.607178 
	C413.790131,610.607178 404.145081,610.607178 393.500061,610.607544 
M601.489685,417.513000 
	C601.348938,416.357208 601.288147,415.184998 601.054626,414.048248 
	C599.316589,405.588348 594.262085,400.135132 585.933899,397.929321 
	C577.694946,395.747162 570.670288,398.286926 565.335754,404.636688 
	C559.820923,411.200989 558.995300,418.772308 562.641113,426.582458 
	C566.494080,434.836273 575.432007,439.341217 584.551941,437.879517 
	C593.717651,436.410492 599.981567,429.170898 601.489685,417.513000 
M1192.015503,754.664062 
	C1187.750610,748.156128 1182.102905,745.608154 1175.642944,747.277710 
	C1169.794922,748.789062 1165.362305,754.211914 1165.028442,760.263672 
	C1164.708374,766.065186 1167.867676,771.582520 1173.122681,773.969482 
	C1178.588745,776.452393 1183.908813,775.948914 1188.459473,771.991089 
	C1193.644409,767.481750 1194.947632,761.811401 1192.015503,754.664062 
z"/>
<path fill="#3270C8" opacity="1.000000" stroke="none" 
	d="
M912.618164,876.280762 
	C834.736816,851.369934 780.470520,801.184326 752.467468,724.962402 
	C701.855652,587.201294 784.530518,436.425842 927.533325,403.327698 
	C1061.591309,372.299805 1195.464722,459.311890 1222.187012,594.792175 
	C1229.740845,633.089783 1227.908569,670.946167 1217.395020,708.474060 
	C1215.695923,714.539001 1212.023193,718.424988 1205.893066,719.581604 
	C1200.512207,720.596863 1196.067505,718.484070 1192.691040,714.272400 
	C1189.499878,710.291687 1189.293823,705.774353 1190.614380,701.023132 
	C1196.218872,680.858887 1199.124512,660.325867 1198.991455,639.379028 
	C1198.353882,538.959045 1125.702026,450.299316 1027.280273,429.839996 
	C913.499451,406.187927 802.542358,474.534973 772.658813,586.681091 
	C740.765503,706.369019 817.256348,830.154236 938.860046,854.008057 
	C1012.741516,868.500671 1077.607300,849.003540 1132.760132,797.659180 
	C1141.894165,789.155945 1154.150146,791.450745 1157.356079,802.543091 
	C1159.085815,808.527588 1156.737305,813.164795 1152.476562,817.296509 
	C1121.442871,847.389709 1085.051636,868.087158 1043.196899,878.762512 
	C999.662170,889.866272 956.185181,889.099731 912.618164,876.280762 
z"/>
<path fill="#3170C7" opacity="1.000000" stroke="none" 
	d="
M390.000000,428.991333 
	C335.515503,428.991547 281.531006,428.960541 227.546539,428.999725 
	C158.185699,429.050079 101.640976,474.022614 86.658951,541.766663 
	C84.097466,553.348877 83.458557,565.549500 83.429558,577.468140 
	C83.185532,677.772034 83.290520,778.076782 83.290520,878.381287 
	C83.290520,880.366760 83.290520,882.352234 83.290520,884.669250 
	C72.774162,884.669250 62.544727,884.669250 51.971375,884.669250 
	C51.888439,882.971802 51.741016,881.361145 51.740864,879.750549 
	C51.731190,777.113403 51.767170,674.476196 51.718807,571.839050 
	C51.698269,528.247498 64.628860,489.251556 93.169067,456.012634 
	C119.562675,425.273773 153.244034,406.928772 193.028656,400.169647 
	C205.107849,398.117493 217.526810,397.313019 229.796051,397.258179 
	C292.610077,396.977386 355.426056,397.128296 418.241333,397.128296 
	C420.030518,397.128296 421.819733,397.128296 423.888733,397.128296 
	C423.888733,407.881927 423.888733,418.128693 423.888733,428.991333 
	C412.712097,428.991333 401.606049,428.991333 390.000000,428.991333 
z"/>
<path fill="#306FC7" opacity="1.000000" stroke="none" 
	d="
M596.204224,649.000000 
	C596.204346,727.770203 596.204346,806.040466 596.204346,884.656433 
	C586.062866,884.656433 576.182983,884.656433 566.043762,884.656433 
	C566.043762,771.847778 566.043762,659.182007 566.043762,546.246338 
	C575.996643,546.246338 585.747131,546.246338 596.204163,546.246338 
	C596.204163,580.369995 596.204163,614.434998 596.204224,649.000000 
z"/>
<path fill="#306FC7" opacity="1.000000" stroke="none" 
	d="
M394.000061,610.607361 
	C404.145081,610.607178 413.790131,610.607178 423.815796,610.607178 
	C423.815796,620.789551 423.815796,630.662476 423.815796,640.812134 
	C340.347321,640.812134 256.976440,640.812134 173.224335,640.812134 
	C173.224335,630.953430 173.224335,621.088745 173.224335,610.607544 
	C246.728622,610.607544 320.114349,610.607544 394.000061,610.607361 
z"/>
<path fill="#3271C8" opacity="1.000000" stroke="none" 
	d="
M601.483521,417.915405 
	C599.981567,429.170898 593.717651,436.410492 584.551941,437.879517 
	C575.432007,439.341217 566.494080,434.836273 562.641113,426.582458 
	C558.995300,418.772308 559.820923,411.200989 565.335754,404.636688 
	C570.670288,398.286926 577.694946,395.747162 585.933899,397.929321 
	C594.262085,400.135132 599.316589,405.588348 601.054626,414.048248 
	C601.288147,415.184998 601.348938,416.357208 601.483521,417.915405 
z"/>
<path fill="#3372C8" opacity="1.000000" stroke="none" 
	d="
M1192.168213,755.011108 
	C1194.947632,761.811401 1193.644409,767.481750 1188.459473,771.991089 
	C1183.908813,775.948914 1178.588745,776.452393 1173.122681,773.969482 
	C1167.867676,771.582520 1164.708374,766.065186 1165.028442,760.263672 
	C1165.362305,754.211914 1169.794922,748.789062 1175.642944,747.277710 
	C1182.102905,745.608154 1187.750610,748.156128 1192.168213,755.011108 
z"/>
</svg>