<svg version="1.1" id="Layer_1" xmlns="http://www.w3.org/2000/svg" xmlns:xlink="http://www.w3.org/1999/xlink" x="0px" y="0px"
	 width="100%" viewBox="0 0 1278 1276" enable-background="new 0 0 1278 1276" xml:space="preserve">
<path fill="#FFFFFF" opacity="1.000000" stroke="none" 
	d="
M715.000000,1277.000000 
	C476.666656,1277.000000 238.833328,1277.000000 1.000000,1277.000000 
	C1.000000,851.666687 1.000000,426.333344 1.000000,1.000000 
	C427.000000,1.000000 853.000000,1.000000 1279.000000,1.000000 
	C1279.000000,426.333344 1279.000000,851.666687 1279.000000,1277.000000 
	C1091.166626,1277.000000 903.333313,1277.000000 715.000000,1277.000000 
M1081.864014,1073.412598 
	C1081.864014,991.914307 1081.900757,910.415894 1081.769043,828.917847 
	C1081.761475,824.233582 1083.014404,820.926208 1086.381714,817.571228 
	C1144.349365,759.814697 1202.184082,701.924500 1260.041748,644.057678 
	C1261.523560,642.575562 1262.937378,641.025452 1265.510986,638.322021 
	C1263.505859,637.009827 1261.726807,636.230957 1260.446655,634.952454 
	C1202.195190,576.775330 1144.007568,518.534302 1085.713501,460.400024 
	C1082.873291,457.567535 1081.778809,454.769531 1081.783936,450.796661 
	C1081.890015,368.299500 1081.863892,285.802216 1081.863892,203.304932 
	C1081.863892,201.352219 1081.864014,199.399490 1081.864014,196.836746 
	C1079.336182,196.836746 1077.391357,196.836761 1075.446411,196.836761 
	C993.115845,196.836884 910.785217,196.821671 828.454712,196.889648 
	C824.934998,196.892563 822.243286,196.177536 819.602417,193.528854 
	C761.237000,134.990662 702.773315,76.550339 644.322388,18.097406 
	C642.950562,16.725506 641.509155,15.423222 639.992676,13.986679 
	C638.437683,15.470447 637.218140,16.587421 636.049805,17.755590 
	C577.712402,76.086624 519.356323,134.399078 461.112610,192.823517 
	C458.136658,195.808731 455.198273,196.923965 451.049713,196.918442 
	C368.885925,196.809052 286.721954,196.836807 204.557999,196.836731 
	C202.612625,196.836731 200.667252,196.836746 198.135925,196.836746 
	C198.135925,199.395844 198.135910,201.348236 198.135910,203.300629 
	C198.136108,285.797913 198.118195,368.295197 198.200577,450.792389 
	C198.204010,454.216034 197.287720,456.698517 194.822647,459.132294 
	C183.915466,469.900970 173.228577,480.892212 162.408447,491.749603 
	C114.764297,539.557800 67.100876,587.346802 19.450062,635.148376 
	C18.176949,636.425537 16.967833,637.766479 15.607883,639.205688 
	C16.561352,640.338440 17.233126,641.267578 18.033276,642.068359 
	C53.234501,677.298096 88.443588,712.520020 123.659477,747.735107 
	C147.332596,771.407837 170.979156,795.107483 194.750565,818.681213 
	C197.362885,821.271729 198.205902,823.920654 198.202179,827.495361 
	C198.116547,909.825867 198.136047,992.156494 198.135971,1074.487061 
	C198.135971,1076.577148 198.135956,1078.667358 198.135956,1081.104004 
	C200.948013,1081.104004 202.932007,1081.104126 204.915985,1081.104126 
	C287.246582,1081.104004 369.577240,1081.084961 451.907684,1081.195679 
	C454.334869,1081.198975 457.401367,1081.870972 459.076721,1083.416260 
	C466.783142,1090.525024 474.135925,1098.020264 481.551910,1105.440430 
	C502.509186,1126.409424 523.425354,1147.419434 544.376587,1168.394653 
	C564.738770,1188.780151 585.156921,1209.110107 605.486694,1229.528076 
	C616.860718,1240.951294 628.105164,1252.503662 640.760010,1265.372925 
	C642.294983,1263.000000 643.123413,1261.061401 644.506348,1259.676392 
	C702.560364,1201.534302 760.687683,1143.465698 818.695129,1085.277344 
	C821.790344,1082.172485 824.880981,1081.016235 829.194275,1081.022095 
	C911.358032,1081.133057 993.522095,1081.104004 1075.686035,1081.104126 
	C1077.602173,1081.104126 1079.518311,1081.104126 1081.863770,1081.104126 
	C1081.863770,1078.329102 1081.863770,1076.356934 1081.864014,1073.412598 
z"/>
<path fill="#F0BF3D" opacity="1.000000" stroke="none" 
	d="
M1081.863892,1073.898682 
	C1081.863770,1076.356934 1081.863770,1078.329102 1081.863770,1081.104126 
	C1079.518311,1081.104126 1077.602173,1081.104126 1075.686035,1081.104126 
	C993.522095,1081.104004 911.358032,1081.133057 829.194275,1081.022095 
	C824.880981,1081.016235 821.790344,1082.172485 818.695129,1085.277344 
	C760.687683,1143.465698 702.560364,1201.534302 644.506348,1259.676392 
	C643.123413,1261.061401 642.294983,1263.000000 640.760010,1265.372925 
	C628.105164,1252.503662 616.860718,1240.951294 605.486694,1229.528076 
	C585.156921,1209.110107 564.738770,1188.780151 544.376587,1168.394653 
	C523.425354,1147.419434 502.509186,1126.409424 481.551910,1105.440430 
	C474.135925,1098.020264 466.783142,1090.525024 459.076721,1083.416260 
	C457.401367,1081.870972 454.334869,1081.198975 451.907684,1081.195679 
	C369.577240,1081.084961 287.246582,1081.104004 204.915985,1081.104126 
	C202.932007,1081.104126 200.948013,1081.104004 198.135956,1081.104004 
	C198.135956,1078.667358 198.135971,1076.577148 198.135971,1074.487061 
	C198.136047,992.156494 198.116547,909.825867 198.202179,827.495361 
	C198.205902,823.920654 197.362885,821.271729 194.750565,818.681213 
	C170.979156,795.107483 147.332596,771.407837 123.659477,747.735107 
	C88.443588,712.520020 53.234501,677.298096 18.033276,642.068359 
	C17.233126,641.267578 16.561352,640.338440 15.607883,639.205688 
	C16.967833,637.766479 18.176949,636.425537 19.450062,635.148376 
	C67.100876,587.346802 114.764297,539.557800 162.408447,491.749603 
	C173.228577,480.892212 183.915466,469.900970 194.822647,459.132294 
	C197.287720,456.698517 198.204010,454.216034 198.200577,450.792389 
	C198.118195,368.295197 198.136108,285.797913 198.135910,203.300629 
	C198.135910,201.348236 198.135925,199.395844 198.135925,196.836746 
	C200.667252,196.836746 202.612625,196.836731 204.557999,196.836731 
	C286.721954,196.836807 368.885925,196.809052 451.049713,196.918442 
	C455.198273,196.923965 458.136658,195.808731 461.112610,192.823517 
	C519.356323,134.399078 577.712402,76.086624 636.049805,17.755590 
	C637.218140,16.587421 638.437683,15.470447 639.992676,13.986679 
	C641.509155,15.423222 642.950562,16.725506 644.322388,18.097406 
	C702.773315,76.550339 761.237000,134.990662 819.602417,193.528854 
	C822.243286,196.177536 824.934998,196.892563 828.454712,196.889648 
	C910.785217,196.821671 993.115845,196.836884 1075.446411,196.836761 
	C1077.391357,196.836761 1079.336182,196.836746 1081.864014,196.836746 
	C1081.864014,199.399490 1081.863892,201.352219 1081.863892,203.304932 
	C1081.863892,285.802216 1081.890015,368.299500 1081.783936,450.796661 
	C1081.778809,454.769531 1082.873291,457.567535 1085.713501,460.400024 
	C1144.007568,518.534302 1202.195190,576.775330 1260.446655,634.952454 
	C1261.726807,636.230957 1263.505859,637.009827 1265.510986,638.322021 
	C1262.937378,641.025452 1261.523560,642.575562 1260.041748,644.057678 
	C1202.184082,701.924500 1144.349365,759.814697 1086.381714,817.571228 
	C1083.014404,820.926208 1081.761475,824.233582 1081.769043,828.917847 
	C1081.900757,910.415894 1081.864014,991.914307 1081.863892,1073.898682 
M213.605774,770.870667 
	C222.966171,800.308472 234.810760,828.676514 249.913147,855.661804 
	C284.358093,917.208679 330.644623,967.995056 388.825623,1007.792847 
	C439.642120,1042.552979 495.343903,1065.708740 555.902222,1077.317505 
	C604.620239,1086.656494 653.467346,1087.730591 702.515747,1080.949219 
	C757.209900,1073.387329 808.686096,1056.062378 856.844360,1029.054810 
	C924.190979,991.286255 978.401917,939.643066 1019.171448,874.074036 
	C1061.252319,806.395935 1083.267212,732.520447 1085.854248,652.941040 
	C1087.302246,608.403992 1082.063721,564.597534 1070.260010,521.539978 
	C1052.154907,455.496613 1020.363037,396.848114 975.440552,345.350220 
	C942.415527,307.491272 903.883850,276.216583 860.163025,251.370270 
	C794.558228,214.087402 723.967346,194.934540 648.615784,193.276077 
	C623.945129,192.733078 599.373108,194.364853 574.929932,197.954376 
	C529.283997,204.657593 485.687317,218.048950 444.327484,238.407578 
	C385.009979,267.605591 334.448853,307.864807 292.871552,359.379517 
	C251.751450,410.327728 223.206039,467.534027 207.195633,530.961426 
	C200.175415,558.773071 196.068802,587.039001 194.596191,615.740540 
	C193.191757,643.113403 194.254440,670.331970 197.682678,697.479004 
	C200.796143,722.133423 206.312378,746.288940 213.605774,770.870667 
z"/>
<path fill="#FFFFFE" opacity="1.000000" stroke="none" 
	d="
M213.461655,770.492798 
	C206.312378,746.288940 200.796143,722.133423 197.682678,697.479004 
	C194.254440,670.331970 193.191757,643.113403 194.596191,615.740540 
	C196.068802,587.039001 200.175415,558.773071 207.195633,530.961426 
	C223.206039,467.534027 251.751450,410.327728 292.871552,359.379517 
	C334.448853,307.864807 385.009979,267.605591 444.327484,238.407578 
	C485.687317,218.048950 529.283997,204.657593 574.929932,197.954376 
	C599.373108,194.364853 623.945129,192.733078 648.615784,193.276077 
	C723.967346,194.934540 794.558228,214.087402 860.163025,251.370270 
	C903.883850,276.216583 942.415527,307.491272 975.440552,345.350220 
	C1020.363037,396.848114 1052.154907,455.496613 1070.260010,521.539978 
	C1082.063721,564.597534 1087.302246,608.403992 1085.854248,652.941040 
	C1083.267212,732.520447 1061.252319,806.395935 1019.171448,874.074036 
	C978.401917,939.643066 924.190979,991.286255 856.844360,1029.054810 
	C808.686096,1056.062378 757.209900,1073.387329 702.515747,1080.949219 
	C653.467346,1087.730591 604.620239,1086.656494 555.902222,1077.317505 
	C495.343903,1065.708740 439.642120,1042.552979 388.825623,1007.792847 
	C330.644623,967.995056 284.358093,917.208679 249.913147,855.661804 
	C234.810760,828.676514 222.966171,800.308472 213.461655,770.492798 
M915.015930,914.515869 
	C960.004639,869.291504 992.252441,816.351318 1011.407654,755.464905 
	C1027.833984,703.252502 1032.614380,649.887695 1026.736084,595.587280 
	C1022.974060,560.834961 1014.445312,527.179871 1001.383240,494.721710 
	C984.496826,452.760437 961.047180,414.867157 930.988464,381.042755 
	C895.776123,341.419098 854.290894,310.070404 806.420837,287.422913 
	C764.226379,267.460632 719.819519,255.453705 673.153931,251.638504 
	C642.620239,249.142181 612.225952,249.839691 582.034546,254.404236 
	C535.032532,261.510284 490.672821,276.650085 449.232086,300.178589 
	C383.343048,337.587952 332.218506,389.581909 296.568970,456.314636 
	C255.935944,532.375977 242.727646,613.560730 255.368835,698.679504 
	C263.802307,755.465759 284.472412,807.797607 316.565613,855.540710 
	C356.739197,915.304626 409.445679,960.586609 474.366608,991.480591 
	C519.657715,1013.033264 567.573914,1025.101318 617.665344,1027.795166 
	C652.719299,1029.680298 687.577209,1027.414429 721.949036,1019.827393 
	C796.217224,1003.433777 860.431030,968.517456 915.015930,914.515869 
z"/>
<path fill="#F0BF3C" opacity="1.000000" stroke="none" 
	d="
M914.765137,914.765137 
	C860.431030,968.517456 796.217224,1003.433777 721.949036,1019.827393 
	C687.577209,1027.414429 652.719299,1029.680298 617.665344,1027.795166 
	C567.573914,1025.101318 519.657715,1013.033264 474.366608,991.480591 
	C409.445679,960.586609 356.739197,915.304626 316.565613,855.540710 
	C284.472412,807.797607 263.802307,755.465759 255.368835,698.679504 
	C242.727646,613.560730 255.935944,532.375977 296.568970,456.314636 
	C332.218506,389.581909 383.343048,337.587952 449.232086,300.178589 
	C490.672821,276.650085 535.032532,261.510284 582.034546,254.404236 
	C612.225952,249.839691 642.620239,249.142181 673.153931,251.638504 
	C719.819519,255.453705 764.226379,267.460632 806.420837,287.422913 
	C854.290894,310.070404 895.776123,341.419098 930.988464,381.042755 
	C961.047180,414.867157 984.496826,452.760437 1001.383240,494.721710 
	C1014.445312,527.179871 1022.974060,560.834961 1026.736084,595.587280 
	C1032.614380,649.887695 1027.833984,703.252502 1011.407654,755.464905 
	C992.252441,816.351318 960.004639,869.291504 914.765137,914.765137 
M673.062866,616.627747 
	C686.029053,559.407776 698.995239,502.187805 712.144653,444.159363 
	C709.873474,444.159363 708.274536,444.159332 706.675598,444.159332 
	C695.013245,444.159271 683.350830,444.159241 671.688477,444.159210 
	C659.246765,444.159180 659.180542,444.144073 656.386841,456.376923 
	C646.314209,500.482544 636.251526,544.590515 626.256409,588.713745 
	C610.053284,660.242004 593.896362,731.780579 577.747253,803.321045 
	C575.420715,813.627563 573.246887,823.968689 570.921509,834.665649 
	C588.984375,834.665649 606.226318,834.665649 623.782043,834.665649 
	C640.201965,762.120178 656.572754,689.791931 673.062866,616.627747 
M838.429810,624.046814 
	C844.394287,628.771057 850.358826,633.495300 856.682922,638.504333 
	C854.824646,640.079346 853.493042,641.291016 852.077698,642.395203 
	C821.097229,666.564758 790.157104,690.786682 759.052673,714.795715 
	C755.428650,717.592957 753.713257,720.293152 753.796509,725.027649 
	C754.101318,742.346313 753.910583,759.673584 753.928040,776.997620 
	C753.929688,778.576050 754.085022,780.154419 754.213684,782.574463 
	C757.539307,780.276489 760.306946,778.527283 762.896179,776.544983 
	C771.487122,769.967651 780.005188,763.295349 788.566528,756.679321 
	C832.433533,722.779419 876.290466,688.866394 920.210327,655.035156 
	C922.999695,652.886597 924.165710,650.564880 923.988159,647.032166 
	C923.704224,641.382874 924.159851,635.692200 923.780701,630.054138 
	C923.647034,628.066711 922.478516,625.549133 920.942688,624.342590 
	C868.051453,582.790710 815.064758,541.360352 762.063965,499.948090 
	C759.698303,498.099731 757.072998,496.583649 753.919006,494.479370 
	C753.919006,515.570740 753.840942,535.552917 754.056763,555.531982 
	C754.075439,557.261719 755.659729,559.449097 757.149170,560.617981 
	C783.998718,581.688721 810.945679,602.635254 838.429810,624.046814 
M355.227631,642.400757 
	C355.519440,646.534424 354.230164,650.684265 358.639404,654.111328 
	C411.901550,695.509277 465.011780,737.102722 518.188477,778.610840 
	C520.072327,780.081299 522.235107,781.194336 524.631958,782.703186 
	C524.950500,781.371521 525.221008,780.766479 525.221924,780.161072 
	C525.252930,760.829102 525.325500,741.496521 525.145447,722.166321 
	C525.130127,720.517517 523.789368,718.395996 522.417175,717.317322 
	C500.156952,699.820068 477.790039,682.458496 455.451630,665.060669 
	C444.595734,656.605835 433.748779,648.139587 422.412048,639.299805 
	C432.472778,631.434937 442.018982,623.950012 451.588959,616.495544 
	C474.583893,598.583801 497.542297,580.624329 520.642334,562.849060 
	C524.164795,560.138550 525.433105,557.213684 525.368652,552.797791 
	C525.118042,535.635864 525.274048,518.468079 525.255249,501.302490 
	C525.253418,499.616150 525.091431,497.929993 524.975281,495.695343 
	C523.653809,496.504395 523.067261,496.790833 522.562683,497.182739 
	C470.337036,537.745056 418.260223,578.501648 365.748474,618.690002 
	C357.602753,624.924133 353.250000,631.296814 355.227631,642.400757 
z"/>
<path fill="#FFFEFD" opacity="1.000000" stroke="none" 
	d="
M673.003174,617.045715 
	C656.572754,689.791931 640.201965,762.120178 623.782043,834.665649 
	C606.226318,834.665649 588.984375,834.665649 570.921509,834.665649 
	C573.246887,823.968689 575.420715,813.627563 577.747253,803.321045 
	C593.896362,731.780579 610.053284,660.242004 626.256409,588.713745 
	C636.251526,544.590515 646.314209,500.482544 656.386841,456.376923 
	C659.180542,444.144073 659.246765,444.159180 671.688477,444.159210 
	C683.350830,444.159241 695.013245,444.159271 706.675598,444.159332 
	C708.274536,444.159332 709.873474,444.159363 712.144653,444.159363 
	C698.995239,502.187805 686.029053,559.407776 673.003174,617.045715 
z"/>
<path fill="#FFFFFE" opacity="1.000000" stroke="none" 
	d="
M838.150818,623.827637 
	C810.945679,602.635254 783.998718,581.688721 757.149170,560.617981 
	C755.659729,559.449097 754.075439,557.261719 754.056763,555.531982 
	C753.840942,535.552917 753.919006,515.570740 753.919006,494.479370 
	C757.072998,496.583649 759.698303,498.099731 762.063965,499.948090 
	C815.064758,541.360352 868.051453,582.790710 920.942688,624.342590 
	C922.478516,625.549133 923.647034,628.066711 923.780701,630.054138 
	C924.159851,635.692200 923.704224,641.382874 923.988159,647.032166 
	C924.165710,650.564880 922.999695,652.886597 920.210327,655.035156 
	C876.290466,688.866394 832.433533,722.779419 788.566528,756.679321 
	C780.005188,763.295349 771.487122,769.967651 762.896179,776.544983 
	C760.306946,778.527283 757.539307,780.276489 754.213684,782.574463 
	C754.085022,780.154419 753.929688,778.576050 753.928040,776.997620 
	C753.910583,759.673584 754.101318,742.346313 753.796509,725.027649 
	C753.713257,720.293152 755.428650,717.592957 759.052673,714.795715 
	C790.157104,690.786682 821.097229,666.564758 852.077698,642.395203 
	C853.493042,641.291016 854.824646,640.079346 856.682922,638.504333 
	C850.358826,633.495300 844.394287,628.771057 838.150818,623.827637 
z"/>
<path fill="#FFFFFE" opacity="1.000000" stroke="none" 
	d="
M355.227783,641.916138 
	C353.250000,631.296814 357.602753,624.924133 365.748474,618.690002 
	C418.260223,578.501648 470.337036,537.745056 522.562683,497.182739 
	C523.067261,496.790833 523.653809,496.504395 524.975281,495.695343 
	C525.091431,497.929993 525.253418,499.616150 525.255249,501.302490 
	C525.274048,518.468079 525.118042,535.635864 525.368652,552.797791 
	C525.433105,557.213684 524.164795,560.138550 520.642334,562.849060 
	C497.542297,580.624329 474.583893,598.583801 451.588959,616.495544 
	C442.018982,623.950012 432.472778,631.434937 422.412048,639.299805 
	C433.748779,648.139587 444.595734,656.605835 455.451630,665.060669 
	C477.790039,682.458496 500.156952,699.820068 522.417175,717.317322 
	C523.789368,718.395996 525.130127,720.517517 525.145447,722.166321 
	C525.325500,741.496521 525.252930,760.829102 525.221924,780.161072 
	C525.221008,780.766479 524.950500,781.371521 524.631958,782.703186 
	C522.235107,781.194336 520.072327,780.081299 518.188477,778.610840 
	C465.011780,737.102722 411.901550,695.509277 358.639404,654.111328 
	C354.230164,650.684265 355.519440,646.534424 355.227783,641.916138 
z"/>
</svg>