<svg version="1.1" id="Layer_1" xmlns="http://www.w3.org/2000/svg" xmlns:xlink="http://www.w3.org/1999/xlink" x="0px" y="0px"
	 width="100%" viewBox="0 0 200 200" enable-background="new 0 0 200 200" xml:space="preserve">
<path fill="#FDFDFD" opacity="1.000000" stroke="none" 
	d="
M88.000000,201.000000 
	C58.666668,201.000000 29.833336,201.000000 1.000004,201.000000 
	C1.000003,134.333344 1.000003,67.666679 1.000001,1.000013 
	C67.666656,1.000009 134.333313,1.000009 200.999969,1.000004 
	C200.999985,67.666649 200.999985,134.333298 201.000000,200.999969 
	C163.500000,201.000000 126.000000,201.000000 88.000000,201.000000 
M136.563919,67.035370 
	C134.487274,67.035370 132.410629,67.035370 130.497864,67.035370 
	C130.497864,89.672905 130.497864,111.516609 130.497864,133.281555 
	C133.311050,133.281555 135.716492,133.281555 138.564941,133.281555 
	C138.564941,125.041672 138.564941,117.140289 138.564941,109.276962 
	C142.805618,109.048096 142.869797,109.038834 143.345490,112.334999 
	C144.357071,119.344437 145.295044,126.364502 146.245773,133.253891 
	C149.285156,133.253891 151.826904,133.253891 154.638153,133.253891 
	C153.307907,124.480995 152.116531,116.109207 150.704300,107.774849 
	C150.443604,106.236298 149.289825,104.849083 148.865829,104.016006 
	C150.207733,101.455307 152.551682,98.890457 152.793457,96.140770 
	C153.373108,89.548607 153.338211,82.841797 152.846390,76.233727 
	C152.389328,70.092468 148.744843,67.265236 142.504395,67.061989 
	C140.842957,67.007874 139.178543,67.044464 136.563919,67.035370 
M26.628145,70.265205 
	C25.855455,73.787842 24.489506,77.298180 24.416225,80.835304 
	C24.147181,93.821442 24.278419,106.816605 24.334948,119.808037 
	C24.344301,121.957748 24.546579,124.144676 24.983471,126.247131 
	C26.146572,131.844330 30.095367,134.591537 36.385189,134.399246 
	C42.637352,134.208115 46.594658,131.208603 47.009228,125.395271 
	C47.443401,119.307053 47.106285,113.163826 47.106285,106.935890 
	C44.356461,106.935890 41.816620,106.935890 39.099728,106.935890 
	C39.099728,111.954750 39.371189,116.637718 38.957176,121.259293 
	C38.805752,122.949646 37.027351,124.494240 35.991154,126.105324 
	C34.938473,124.513695 33.000057,122.937492 32.972008,121.328003 
	C32.728249,107.341476 32.725769,93.347267 32.959885,79.360512 
	C32.987415,77.715706 34.876118,76.102051 35.902039,74.473953 
	C36.968426,76.068657 38.806717,77.595345 38.954391,79.271011 
	C39.373302,84.024612 39.101200,88.839111 39.101200,93.857178 
	C42.011459,93.857178 44.445354,93.857178 47.329498,93.857178 
	C47.329498,88.639107 47.342922,83.513145 47.325573,78.387283 
	C47.309528,73.647713 46.369751,69.202965 41.430389,67.260391 
	C36.311676,65.247269 31.306124,65.483551 26.628145,70.265205 
M55.834896,132.850006 
	C67.071999,137.162384 73.821999,132.678696 73.964981,120.728378 
	C74.046638,113.903275 73.995338,107.076385 73.979309,100.250359 
	C73.961327,92.592812 74.165306,84.923759 73.811073,77.281113 
	C73.463142,69.774559 69.503098,66.177040 62.473946,66.166870 
	C55.569527,66.156891 51.364563,69.531258 51.191341,76.750031 
	C50.816139,92.386284 50.857388,108.042915 51.251575,123.678017 
	C51.325699,126.617989 53.831879,129.496643 55.834896,132.850006 
M92.061470,76.549377 
	C92.061470,83.011810 92.061470,89.474251 92.061470,95.980377 
	C89.901970,95.980377 88.198181,95.980377 86.042526,95.980377 
	C86.042526,86.201012 86.042526,76.782852 86.042526,67.346565 
	C83.174194,67.346565 80.773209,67.346565 78.372833,67.346565 
	C78.372833,89.533470 78.372833,111.411743 78.372833,133.267090 
	C81.146713,133.267090 83.541809,133.267090 86.336029,133.267090 
	C86.336029,123.479202 86.336029,114.037239 86.336029,104.574142 
	C88.455818,104.574142 90.147133,104.574142 92.243744,104.574142 
	C92.243744,114.366875 92.243744,123.790367 92.243744,133.338425 
	C95.079483,133.338425 97.498215,133.338425 99.965439,133.338425 
	C99.965439,111.156548 99.965439,89.258865 99.965439,67.354225 
	C97.222641,67.354225 94.819862,67.354225 92.061066,67.354225 
	C92.061066,70.295494 92.061066,72.931030 92.061470,76.549377 
M105.700272,102.951202 
	C104.990829,113.016129 104.281387,123.081047 103.558937,133.330414 
	C106.650635,133.330414 109.208023,133.330414 111.898232,133.330414 
	C112.164772,130.312805 112.405762,127.584435 112.642899,124.899750 
	C114.752022,124.899750 116.315453,124.899750 118.012489,124.899750 
	C118.251083,127.934319 118.466286,130.671448 118.668152,133.238861 
	C121.802834,133.238861 124.357613,133.238861 127.121628,133.238861 
	C125.549316,110.989731 124.006393,89.156418 122.467865,67.385292 
	C117.428299,67.385292 112.860306,67.385292 108.200363,67.385292 
	C107.369820,79.160294 106.563492,90.591949 105.700272,102.951202 
M156.087250,74.574577 
	C157.859726,74.747292 159.632217,74.919998 161.968033,75.147606 
	C161.968033,94.685287 161.968033,114.030266 161.968033,133.234161 
	C164.961685,133.234161 167.356567,133.234161 170.086578,133.234161 
	C170.086578,113.594711 170.086578,94.343262 170.086578,75.065132 
	C172.185089,74.847313 173.947357,74.664391 175.782593,74.473900 
	C175.782593,71.961967 175.782593,69.717155 175.782593,67.302437 
	C168.960693,67.302437 162.402740,67.302437 155.541260,67.302437 
	C155.541260,69.677322 155.541260,71.794319 156.087250,74.574577 
z"/>
<path fill="#0A0A0A" opacity="1.000000" stroke="none" 
	d="
M137.039703,67.037392 
	C139.178543,67.044464 140.842957,67.007874 142.504395,67.061989 
	C148.744843,67.265236 152.389328,70.092468 152.846390,76.233727 
	C153.338211,82.841797 153.373108,89.548607 152.793457,96.140770 
	C152.551682,98.890457 150.207733,101.455307 148.865829,104.016006 
	C149.289825,104.849083 150.443604,106.236298 150.704300,107.774849 
	C152.116531,116.109207 153.307907,124.480995 154.638153,133.253891 
	C151.826904,133.253891 149.285156,133.253891 146.245773,133.253891 
	C145.295044,126.364502 144.357071,119.344437 143.345490,112.334999 
	C142.869797,109.038834 142.805618,109.048096 138.564941,109.276962 
	C138.564941,117.140289 138.564941,125.041672 138.564941,133.281555 
	C135.716492,133.281555 133.311050,133.281555 130.497864,133.281555 
	C130.497864,111.516609 130.497864,89.672905 130.497864,67.035370 
	C132.410629,67.035370 134.487274,67.035370 137.039703,67.037392 
M145.017960,86.538269 
	C145.017151,84.372040 145.039413,82.205498 145.010666,80.039635 
	C144.954117,75.779221 143.060226,73.920273 138.606674,75.175949 
	C138.606674,83.745461 138.606674,92.182724 138.606674,100.667984 
	C143.294556,101.776833 145.032379,99.706352 145.016159,95.508270 
	C145.005875,92.842186 145.016647,90.176025 145.017960,86.538269 
z"/>
<path fill="#0E0E0E" opacity="1.000000" stroke="none" 
	d="
M26.860504,69.961014 
	C31.306124,65.483551 36.311676,65.247269 41.430389,67.260391 
	C46.369751,69.202965 47.309528,73.647713 47.325573,78.387283 
	C47.342922,83.513145 47.329498,88.639107 47.329498,93.857178 
	C44.445354,93.857178 42.011459,93.857178 39.101200,93.857178 
	C39.101200,88.839111 39.373302,84.024612 38.954391,79.271011 
	C38.806717,77.595345 36.968426,76.068657 35.902039,74.473953 
	C34.876118,76.102051 32.987415,77.715706 32.959885,79.360512 
	C32.725769,93.347267 32.728249,107.341476 32.972008,121.328003 
	C33.000057,122.937492 34.938473,124.513695 35.991158,126.105324 
	C37.027351,124.494240 38.805752,122.949646 38.957176,121.259293 
	C39.371189,116.637718 39.099728,111.954750 39.099728,106.935890 
	C41.816620,106.935890 44.356461,106.935890 47.106285,106.935890 
	C47.106285,113.163826 47.443401,119.307053 47.009228,125.395271 
	C46.594658,131.208603 42.637352,134.208115 36.385189,134.399246 
	C30.095367,134.591537 26.146572,131.844330 24.983471,126.247131 
	C24.546579,124.144676 24.344301,121.957748 24.334948,119.808037 
	C24.278419,106.816605 24.147181,93.821442 24.416225,80.835304 
	C24.489506,77.298180 25.855455,73.787842 26.860504,69.961014 
z"/>
<path fill="#070707" opacity="1.000000" stroke="none" 
	d="
M55.525337,132.626801 
	C53.831879,129.496643 51.325699,126.617989 51.251575,123.678017 
	C50.857388,108.042915 50.816139,92.386284 51.191341,76.750031 
	C51.364563,69.531258 55.569527,66.156891 62.473946,66.166870 
	C69.503098,66.177040 73.463142,69.774559 73.811073,77.281113 
	C74.165306,84.923759 73.961327,92.592812 73.979309,100.250359 
	C73.995338,107.076385 74.046638,113.903275 73.964981,120.728378 
	C73.821999,132.678696 67.071999,137.162384 55.525337,132.626801 
M59.582611,76.636978 
	C59.435665,91.741676 59.198936,106.846901 59.288982,121.950188 
	C59.297436,123.367081 61.367168,124.771683 62.479866,126.181992 
	C63.576897,124.760368 65.545906,123.383614 65.621742,121.909454 
	C65.971405,115.112572 65.800606,108.288559 65.803055,101.474274 
	C65.805740,93.995110 65.944832,86.511635 65.732063,79.038376 
	C65.602776,74.497368 63.775658,73.662125 59.582611,76.636978 
z"/>
<path fill="#080808" opacity="1.000000" stroke="none" 
	d="
M92.061264,76.057976 
	C92.061066,72.931030 92.061066,70.295494 92.061066,67.354225 
	C94.819862,67.354225 97.222641,67.354225 99.965439,67.354225 
	C99.965439,89.258865 99.965439,111.156548 99.965439,133.338425 
	C97.498215,133.338425 95.079483,133.338425 92.243744,133.338425 
	C92.243744,123.790367 92.243744,114.366875 92.243744,104.574142 
	C90.147133,104.574142 88.455818,104.574142 86.336029,104.574142 
	C86.336029,114.037239 86.336029,123.479202 86.336029,133.267090 
	C83.541809,133.267090 81.146713,133.267090 78.372833,133.267090 
	C78.372833,111.411743 78.372833,89.533470 78.372833,67.346565 
	C80.773209,67.346565 83.174194,67.346565 86.042526,67.346565 
	C86.042526,76.782852 86.042526,86.201012 86.042526,95.980377 
	C88.198181,95.980377 89.901970,95.980377 92.061470,95.980377 
	C92.061470,89.474251 92.061470,83.011810 92.061264,76.057976 
z"/>
<path fill="#0D0D0D" opacity="1.000000" stroke="none" 
	d="
M105.728714,102.487396 
	C106.563492,90.591949 107.369820,79.160294 108.200363,67.385292 
	C112.860306,67.385292 117.428299,67.385292 122.467865,67.385292 
	C124.006393,89.156418 125.549316,110.989731 127.121628,133.238861 
	C124.357613,133.238861 121.802834,133.238861 118.668152,133.238861 
	C118.466286,130.671448 118.251083,127.934319 118.012489,124.899750 
	C116.315453,124.899750 114.752022,124.899750 112.642899,124.899750 
	C112.405762,127.584435 112.164772,130.312805 111.898232,133.330414 
	C109.208023,133.330414 106.650635,133.330414 103.558937,133.330414 
	C104.281387,123.081047 104.990829,113.016129 105.728714,102.487396 
M113.324463,102.771828 
	C113.113853,107.504082 112.903236,112.236343 112.695274,116.909042 
	C114.806084,116.909042 116.236908,116.909042 118.143379,116.909042 
	C117.405136,103.807816 116.682076,90.976082 115.959015,78.144348 
	C115.443344,78.115150 114.927673,78.085945 114.412003,78.056747 
	C114.064789,85.980515 113.717575,93.904289 113.324463,102.771828 
z"/>
<path fill="#0A0A0A" opacity="1.000000" stroke="none" 
	d="
M155.814255,74.242950 
	C155.541260,71.794319 155.541260,69.677322 155.541260,67.302437 
	C162.402740,67.302437 168.960693,67.302437 175.782593,67.302437 
	C175.782593,69.717155 175.782593,71.961967 175.782593,74.473900 
	C173.947357,74.664391 172.185089,74.847313 170.086578,75.065132 
	C170.086578,94.343262 170.086578,113.594711 170.086578,133.234161 
	C167.356567,133.234161 164.961685,133.234161 161.968033,133.234161 
	C161.968033,114.030266 161.968033,94.685287 161.968033,75.147606 
	C159.632217,74.919998 157.859726,74.747292 155.814255,74.242950 
z"/>
<path fill="#E7E7E7" opacity="1.000000" stroke="none" 
	d="
M145.017975,87.024078 
	C145.016647,90.176025 145.005875,92.842186 145.016159,95.508270 
	C145.032379,99.706352 143.294556,101.776833 138.606674,100.667984 
	C138.606674,92.182724 138.606674,83.745461 138.606674,75.175949 
	C143.060226,73.920273 144.954117,75.779221 145.010666,80.039635 
	C145.039413,82.205498 145.017151,84.372040 145.017975,87.024078 
z"/>
<path fill="#EAEAEA" opacity="1.000000" stroke="none" 
	d="
M59.758453,76.275085 
	C63.775658,73.662125 65.602776,74.497368 65.732063,79.038376 
	C65.944832,86.511635 65.805740,93.995110 65.803055,101.474274 
	C65.800606,108.288559 65.971405,115.112572 65.621742,121.909454 
	C65.545906,123.383614 63.576897,124.760368 62.479866,126.181992 
	C61.367168,124.771683 59.297436,123.367081 59.288982,121.950188 
	C59.198936,106.846901 59.435665,91.741676 59.758453,76.275085 
z"/>
<path fill="#ECECEC" opacity="1.000000" stroke="none" 
	d="
M113.347412,102.299942 
	C113.717575,93.904289 114.064789,85.980515 114.412003,78.056747 
	C114.927673,78.085945 115.443344,78.115150 115.959015,78.144348 
	C116.682076,90.976082 117.405136,103.807816 118.143379,116.909042 
	C116.236908,116.909042 114.806084,116.909042 112.695274,116.909042 
	C112.903236,112.236343 113.113853,107.504082 113.347412,102.299942 
z"/>
</svg>