<?xml version="1.0" standalone="no"?>
<!DOCTYPE svg PUBLIC "-//W3C//DTD SVG 20010904//EN"
 "http://www.w3.org/TR/2001/REC-SVG-20010904/DTD/svg10.dtd">
<svg version="1.0" xmlns="http://www.w3.org/2000/svg"
 width="280.000000pt" height="280.000000pt" viewBox="0 0 280.000000 280.000000"
 preserveAspectRatio="xMidYMid meet">

 <rect width="100%" height="100%" fill="white"/>

<g transform="translate(0.000000,280.000000) scale(0.100000,-0.100000)"
fill="#F50032" stroke="none">
<path d="M0 1400 l0 -1400 1400 0 1400 0 0 1400 0 1400 -1400 0 -1400 0 0
-1400z m1240 320 l0 -320 -27 -5 c-84 -16 -123 -29 -173 -58 -57 -32 -195
-165 -364 -350 -138 -152 -255 -226 -358 -227 l-38 0 0 319 0 318 52 6 c119
14 240 101 404 289 133 152 227 242 295 284 54 33 140 62 187 63 l22 1 0 -320z
m960 0 l0 -320 -27 -5 c-84 -16 -123 -29 -173 -58 -57 -33 -182 -153 -360
-346 -143 -156 -262 -231 -367 -231 l-33 0 0 319 0 318 53 6 c28 4 84 22 123
42 78 38 178 130 343 314 108 120 185 190 250 227 47 26 129 52 169 53 l22 1
0 -320z m137 -354 c61 -29 119 -86 153 -152 21 -42 25 -63 25 -139 0 -81 -3
-95 -30 -144 -52 -95 -160 -169 -247 -170 l-38 -1 0 321 0 322 43 -7 c23 -4
65 -18 94 -30z"/>
</g>
</svg>
